<?xml version="1.0" encoding="UTF-8"?>
<svg id="uuid-5bab091d-8bdc-40b7-a086-cdc7c5a1a702" data-name="Calque 2" xmlns="http://www.w3.org/2000/svg" viewBox="0 0 364.9 185.61">
  <g id="uuid-f203a9dd-eb1c-49fc-82cc-54ef257d3935" data-name="Calque 1">
    <g>
      <g>
        <path d="M26.01,167.67c-.46,0-.85-.31-.97-.75L1.03,73.98c-.07-.29-.02-.6.16-.84.18-.24.45-.39.75-.41l71.4-4.43,36.66-18.72h-59c-.46,0-.86-.31-.97-.76-.11-.45.1-.91.51-1.12l31.81-16.63L3.12,2.94c-.51-.18-.79-.74-.61-1.26.14-.42.53-.68.95-.68.1,0,.2.02.3.05l92.64,28.89c.39.12.67.47.7.88.03.41-.19.79-.56.97l-27.18,13.35s69.74-2.24,69.75-2.24c.46,0,.86.31.97.76.11.46-.11.93-.54,1.14l-48.39,23.28s270.68-11.96,270.69-11.96c.33,0,.65.17.83.45.19.29.22.67.07.98l-52.53,109.57c-.17.35-.52.57-.9.57H26.01Z" style="stroke-width: 0px;"/>
        <path d="M3.45,2l92.64,28.89-31.35,15.39,74.36-2.39-52.79,25.39,275.53-12.18-52.53,109.57H26.01L2,73.73l71.61-4.45,40.55-20.7h-63.16l33.84-17.69L3.45,2M3.45,0c-.84,0-1.62.53-1.9,1.37-.34,1.03.2,2.15,1.23,2.52l77.07,27.35-29.78,15.57c-.82.43-1.24,1.36-1.02,2.25.22.89,1.02,1.52,1.94,1.52h54.84l-32.77,16.73L1.88,71.73c-.6.04-1.14.34-1.49.82s-.47,1.1-.32,1.68l24.01,92.95c.23.88,1.02,1.5,1.94,1.5h283.28c.77,0,1.47-.44,1.8-1.14l52.53-109.57c.3-.63.25-1.38-.13-1.97-.37-.56-1-.9-1.67-.9-.03,0-.06,0-.09,0l-265.77,11.74,43.99-21.16c.85-.41,1.3-1.36,1.08-2.28-.22-.9-1.02-1.52-1.94-1.52-.02,0-.04,0-.07,0l-65.07,2.09,23.02-11.3c.73-.36,1.18-1.13,1.11-1.95-.06-.82-.62-1.51-1.4-1.76L4.05.09c-.2-.06-.4-.09-.6-.09h0Z" style="fill: #fff; stroke-width: 0px;"/>
      </g>
      <g>
        <path d="M44.56,99.03c.34-.22.7-.27,1.08-.16.38.11.76.32,1.12.65.36.32.68.72.97,1.19.29.47.5.94.65,1.4s.19.91.13,1.33-.26.75-.59.99c-.46.34-1.04.73-1.75,1.17-.71.44-1.48.89-2.32,1.33-.84.44-1.73.88-2.66,1.3s-1.85.79-2.74,1.12c-.89.32-1.73.59-2.54.79-.8.2-1.51.31-2.11.31-1.15-.43-2.07-1.12-2.75-2.05-.68-.94-1.17-1.97-1.46-3.11-.29-1.14-.41-2.32-.36-3.55.05-1.22.23-2.35.54-3.38.5-1.39,1.07-2.68,1.71-3.85.64-1.17,1.33-2.31,2.09-3.4.76-1.09,1.55-2.17,2.39-3.22.84-1.06,1.69-2.15,2.56-3.28.24-.26.51-.5.81-.7.3-.2.62-.35.95-.43.34-.08.69-.1,1.06-.04.37.06.76.22,1.17.49,1.37,1.01,2.33,2.23,2.9,3.65.56,1.43.85,2.9.85,4.41-.1.84-.35,1.33-.76,1.48-.41.14-.86.08-1.35-.2-.49-.28-.96-.7-1.4-1.26-.44-.56-.75-1.13-.92-1.71-.17.19-.33.37-.49.52-.16.16-.31.32-.45.49-1.51,1.85-2.9,3.76-4.16,5.74-1.26,1.98-2.24,4.22-2.93,6.71.89-.46,1.8-.84,2.74-1.15s1.87-.62,2.79-.94c.92-.31,1.83-.67,2.72-1.08.89-.41,1.73-.92,2.52-1.55Z" style="fill: #fff; stroke-width: 0px;"/>
        <path d="M61.12,92.62c.48.14.93.45,1.35.92.42.47.73.97.92,1.51.19.54.23,1.03.13,1.48-.11.44-.44.7-.99.77-.29.14-.57.24-.85.29-.28.05-.55.13-.81.25,0,1.66-.06,3.31-.18,4.95-.12,1.64-.25,3.29-.4,4.95,0,.55-.17.94-.5,1.17-.34.23-.71.21-1.12-.05-.55-.29-1.01-.74-1.39-1.35-.37-.61-.56-1.27-.56-1.96.14-1.1.23-2.21.25-3.33.02-1.12.04-2.3.04-3.55-.7.26-1.44.54-2.23.83-.79.29-1.61.56-2.45.83-.14.84-.24,1.67-.29,2.48-.05.82-.13,1.63-.25,2.45,0,.55-.01,1.1-.04,1.66-.02.55-.11,1.1-.25,1.66v1.12c.14.26.27.58.38.95.11.37.16.69.16.95,0,.55-.17.94-.52,1.17-.35.23-.73.21-1.13-.05-.55-.29-1-.65-1.35-1.08-.35-.43-.62-.91-.81-1.42-.19-.52-.31-1.06-.34-1.62-.04-.56-.02-1.12.05-1.67.12-1.1.2-2.21.25-3.33.05-1.12.14-2.3.29-3.55-.05.05-.11.1-.18.14-.14.1-.26.14-.36.14-.41.07-.84-.12-1.3-.58-.46-.46-.82-.98-1.08-1.58-.26-.6-.37-1.18-.31-1.75.06-.56.4-.92,1.03-1.06.41,0,.82-.05,1.24-.16.42-.11.83-.23,1.24-.38.12-1.66.2-3.32.25-4.99.05-1.67.14-3.4.29-5.2,0-.55.17-.94.52-1.15.35-.22.73-.19,1.13.07.55.41,1.01.92,1.37,1.55s.54,1.21.54,1.76c0,1.22-.05,2.45-.14,3.69-.1,1.24-.14,2.48-.14,3.73.7-.14,1.43-.28,2.21-.41.78-.13,1.52-.27,2.21-.41.12,0,.2-.05.25-.14.05-.1.14-.14.29-.14,0-.96.01-1.92.04-2.88.02-.96.11-1.92.25-2.88v-3.31c0-.26.02-.57.07-.92.05-.35.2-.59.47-.74.14-.26.38-.41.72-.43.34-.02.65.04.94.18v.25c.26.22.53.47.79.77.26.3.48.63.65.99.17.36.28.74.34,1.15s.02.82-.13,1.22l-.29.29v4.93c-.14.14-.23.28-.25.41s-.04.27-.04.41Z" style="fill: #fff; stroke-width: 0px;"/>
        <path d="M75.45,98.99c.46.07.9.38,1.33.94.43.55.74,1.15.92,1.78.18.64.19,1.2.02,1.69-.17.49-.62.7-1.37.63-.6-.07-1.24-.07-1.93,0-.68.07-1.35.22-2,.45-.65.23-1.26.53-1.84.9-.58.37-1.04.82-1.4,1.35-.24.31-.47.61-.7.9-.23.29-.47.53-.74.74-.26.21-.55.35-.86.45-.31.1-.66.11-1.04.04-.36,0-.71-.08-1.04-.25-.34-.17-.65-.4-.94-.68s-.54-.61-.76-.97c-.22-.36-.4-.73-.54-1.12-.31-.91-.44-1.87-.4-2.86.05-1,.07-1.93.07-2.79.17-.91.28-1.77.32-2.57.05-.8.14-1.66.29-2.57v-.29c-.14-.46-.2-.94-.18-1.44.02-.5.18-.82.47-.94l.29-.29c.17-1.08.28-2.19.32-3.33.05-1.14-.16-2.24-.61-3.29-.07-.31-.12-.64-.14-.99-.02-.35,0-.66.07-.94.07-.28.21-.49.41-.65.2-.16.5-.2.88-.13,1.22.14,2.43.31,3.62.49,1.19.18,2.37.4,3.55.67.36.05.7.22,1.03.5.32.29.61.63.85,1.03.24.4.43.82.56,1.26.13.44.18.85.14,1.22-.04.37-.16.67-.38.88-.22.22-.55.3-1.01.25-.91-.17-1.8-.32-2.66-.47-.86-.14-1.75-.29-2.66-.43.12.46.19.96.22,1.51.02.55.04,1.04.04,1.48.77-.14,1.52-.24,2.27-.29.74-.05,1.48-.16,2.2-.32.36,0,.71.13,1.04.38.34.25.64.57.92.95.28.38.5.8.67,1.26.17.46.26.89.27,1.3.01.41-.06.76-.22,1.04-.16.29-.44.46-.85.5-1.22,0-2.41.13-3.55.38-1.14.25-2.25.52-3.33.81-.14.62-.28,1.29-.41,2-.13.71-.2,1.43-.2,2.18v.29c.31-.29.68-.61,1.1-.97.42-.36.86-.62,1.31-.79,1.03-.43,2.08-.73,3.15-.88,1.07-.16,2.21-.15,3.44.02Z" style="fill: #fff; stroke-width: 0px;"/>
        <path d="M91.83,100.15c.34-.17.7-.18,1.1-.04.4.14.78.39,1.15.74s.7.76.99,1.24c.29.48.5.97.65,1.46s.19.95.13,1.37c-.06.42-.26.74-.59.95-1.01.5-2.09,1.06-3.26,1.67-1.16.61-2.36,1.14-3.58,1.58-1.22.44-2.45.74-3.69.88-1.24.14-2.44,0-3.62-.43-1.27-.5-2.32-1.2-3.15-2.09-.83-.89-1.45-1.89-1.87-3.01-.42-1.12-.66-2.3-.72-3.56-.06-1.26.04-2.53.31-3.8.24-1.1.54-2.23.9-3.37.36-1.14.8-2.24,1.33-3.29.53-1.06,1.16-2.03,1.89-2.93.73-.9,1.6-1.64,2.61-2.21,1.18-.67,2.34-1.01,3.49-1.01s2.21.26,3.19.79c.97.53,1.82,1.28,2.54,2.25.72.97,1.25,2.08,1.58,3.33,0,.26-.02.55-.07.85-.05.3-.13.57-.25.81s-.29.41-.5.5-.49.06-.83-.11c-.7-.19-1.22-.51-1.57-.95-.35-.44-.62-.92-.81-1.42-.19-.17-.31-.26-.36-.29-.05-.02-.16-.04-.32-.04-.34,0-.67.05-1.01.16-.34.11-.68.16-1.04.16-.67.34-1.25.74-1.75,1.22-.49.48-.91.97-1.24,1.48-.86,1.2-1.6,2.47-2.21,3.82-.61,1.34-1,2.77-1.17,4.28-.17.34-.26.65-.29.95-.02.3-.04.55-.04.74v1.01c.48.19,1.03.29,1.66.29s1.19-.1,1.69-.29c.74-.07,1.49-.23,2.25-.47.76-.24,1.51-.53,2.25-.86.74-.34,1.47-.71,2.18-1.12.71-.41,1.4-.83,2.07-1.26Z" style="fill: #fff; stroke-width: 0px;"/>
        <path d="M113.82,83.19c.34-.14.68-.14,1.04,0,.36.14.7.37,1.01.68s.58.68.81,1.1.39.83.49,1.24.11.78.05,1.12c-.06.34-.23.58-.52.72-2.88,1.01-5.66,2.21-8.33,3.6-2.68,1.39-5.24,2.88-7.69,4.46,2.16,1.73,4.09,3.64,5.8,5.74,1.7,2.1,3.2,4.39,4.5,6.86.07.22.17.47.29.76s.2.59.25.9c.05.31.04.6-.02.86-.06.26-.23.47-.52.61-.22.14-.46.18-.74.11-.28-.07-.54-.2-.79-.38-.25-.18-.47-.38-.67-.61-.19-.23-.32-.41-.4-.56-1.15-2.02-2.44-3.92-3.87-5.72s-3.01-3.42-4.73-4.86c0,.55-.04,1.06-.13,1.53-.08.47-.13.91-.13,1.31-.14.72-.2,1.39-.18,2.02.02.62.17,1.3.43,2.02.07.14.14.34.2.59.06.25.07.52.04.79-.04.28-.13.52-.29.74-.16.22-.41.36-.77.43-.29,0-.56-.08-.81-.23s-.49-.36-.7-.61-.41-.53-.59-.83c-.18-.3-.34-.59-.49-.88-.41-1.01-.64-2.12-.68-3.33-.05-1.21-.01-2.39.11-3.55-.1,0-.22.05-.36.14-.07.05-.13.1-.18.14-.43.36-.91.38-1.42.05-.52-.32-.95-.79-1.31-1.39-.36-.6-.58-1.22-.67-1.87-.08-.65.09-1.12.52-1.4.41-.41.83-.77,1.28-1.1.44-.32.87-.62,1.28-.88.17-.14.28-.24.32-.29.05-.05.14-.14.29-.29.26-.14.48-.24.65-.29.17-.05.32-.16.47-.32.17-1.3.37-2.58.59-3.85.23-1.27.41-2.56.56-3.85,0-.14.01-.33.04-.56.02-.23.11-.43.25-.59,0-.14.01-.29.04-.43.02-.14.1-.29.22-.43.17-.58.49-.83.95-.76s.93.32,1.39.76c.41.43.75.94,1.03,1.51.28.58.41,1.22.41,1.94-.17.55-.32,1.07-.47,1.55-.14.48-.29,1.02-.43,1.62,2.02-1.18,4.08-2.26,6.19-3.26,2.11-1,4.25-1.93,6.41-2.79Z" style="fill: #fff; stroke-width: 0px;"/>
        <path d="M150.72,107.02c0,.31-.07.58-.21.81-.14.23-.32.4-.54.52s-.45.18-.71.18-.51-.08-.75-.25c-.64-.48-1.13-1.04-1.46-1.69-.33-.65-.6-1.37-.79-2.16,0-1.3-.05-2.58-.14-3.85-.1-1.27-.14-2.56-.14-3.85-.19.34-.42.71-.68,1.13s-.47.8-.61,1.13c-.17.34-.38.52-.65.54-.26.02-.54-.02-.81-.14s-.55-.28-.81-.49c-.26-.2-.48-.39-.65-.56-.34-.48-.65-.92-.94-1.33s-.5-.94-.65-1.58c-.48.98-.89,1.89-1.22,2.72s-.67,1.64-1.01,2.43c-.65,1.61-1.35,3.22-2.11,4.82-.76,1.61-1.46,3.22-2.11,4.82.1.17.14.36.14.58s-.04.43-.12.63c-.08.2-.21.38-.36.52-.16.14-.35.22-.59.22-.34.14-.66.17-.97.07s-.62-.24-.94-.43c-.5-.48-.91-1.03-1.21-1.64-.3-.61-.45-1.24-.45-1.89h-.29c0-.31.06-.6.18-.86.12-.26.28-.4.47-.4.65-1.8,1.36-3.58,2.12-5.33.77-1.75,1.56-3.5,2.38-5.26.65-1.8,1.38-3.55,2.2-5.26s1.8-3.28,2.95-4.72c.14-.34.31-.53.5-.58s.43-.07.72-.07c.84.34,1.51.81,2,1.42.49.61.91,1.31,1.24,2.11.34-.79.71-1.64,1.13-2.56.42-.91.8-1.78,1.13-2.59.17-.55.41-.87.73-.95.32-.08.66-.04,1.02.14.36.18.7.45,1.02.81.32.36.55.7.7,1.01.48.86.8,1.74.96,2.63.17.89.25,1.78.25,2.68s-.04,1.81-.11,2.74-.11,1.87-.11,2.83c-.19,1.8-.23,3.62-.11,5.47s.25,3.67.39,5.47Z" style="fill: #fff; stroke-width: 0px;"/>
        <path d="M161.95,83.48c.48.48.91,1.07,1.3,1.78.38.71.58,1.39.58,2.03,0,4.27-.75,8.4-2.23,12.38-1.49,3.98-3.58,7.64-6.26,10.98-.31.31-.65.46-1.03.43-.37-.02-.73-.16-1.08-.41-.35-.25-.67-.58-.97-.99-.3-.41-.54-.84-.72-1.3s-.28-.91-.31-1.35c-.02-.44.07-.82.29-1.13.65-.77,1.28-1.62,1.91-2.56.62-.94,1.26-1.87,1.91-2.81-.65-1.3-1.36-2.57-2.12-3.82s-1.54-2.5-2.3-3.74c-.48.14-.97.04-1.48-.31s-.94-.8-1.3-1.37c-.36-.56-.6-1.14-.72-1.73-.12-.59-.02-1.04.29-1.35.19-.31.38-.56.56-.74.18-.18.43-.34.74-.49.24-.1.47-.11.7-.05.23.06.45.16.67.29.22.13.43.29.63.49.2.19.38.36.52.5.96,1.42,1.91,2.84,2.86,4.28.95,1.44,1.89,2.95,2.83,4.54.79-1.9,1.41-3.86,1.85-5.9s.67-4.16.67-6.37c0-.65.21-1.1.63-1.37.42-.26.95-.24,1.6.07Z" style="fill: #fff; stroke-width: 0px;"/>
        <path d="M196.95,101.62c.34-.09.67-.06,1.01.11.34.17.64.42.92.76.28.34.51.72.7,1.15.19.43.31.85.34,1.24.04.4-.02.75-.16,1.06-.14.31-.41.52-.79.61-1.78.29-3.52.58-5.24.86-1.72.29-3.45.58-5.2.86-.74.14-1.52.31-2.34.5-.82.19-1.58.23-2.3.11-.74-.31-1.38-.85-1.91-1.62-.53-.77-.88-1.6-1.04-2.48-.07-.36-.09-.76-.05-1.19.04-.43.09-.86.16-1.3.07-.43.16-.86.25-1.28.1-.42.18-.81.25-1.17.29-.74.58-1.47.86-2.18.29-.71.58-1.43.86-2.18.58-1.61,1.27-3.15,2.07-4.63.8-1.48,1.57-2.93,2.29-4.37.14-.29.34-.44.58-.47.24-.02.49.02.76.13.26.11.51.25.74.43.23.18.41.34.56.49.31.43.56.97.76,1.62.19.65.14,1.26-.14,1.84-.5,1.1-1.03,2.18-1.57,3.24-.54,1.06-1.05,2.12-1.53,3.2-.48,1.08-.94,2.17-1.37,3.26-.43,1.09-.79,2.23-1.08,3.4.72-.17,1.4-.32,2.03-.45s1.3-.27,2-.41c1.34-.17,2.65-.37,3.92-.61,1.27-.24,2.5-.42,3.67-.54Z" style="fill: #fff; stroke-width: 0px;"/>
        <path d="M211.02,98.82c.29-.05.58.04.88.25.3.22.58.5.85.85.26.35.48.73.65,1.15s.27.82.31,1.19c.04.37-.02.7-.16.97-.14.28-.41.44-.79.49-1.75.29-3.54.7-5.36,1.24s-3.6,1.1-5.33,1.67c.29.29.49.67.61,1.15.12.48.11.86-.04,1.15-.07.36-.19.61-.36.74-.17.13-.36.19-.58.16-.22-.02-.45-.1-.68-.22-.24-.12-.47-.25-.68-.4-.14-.29-.34-.56-.58-.83-.24-.26-.43-.47-.58-.61-.31,0-.56.05-.76.14s-.43.14-.72.14c-.5.22-1.02.14-1.55-.23-.53-.37-.95-.85-1.28-1.44s-.49-1.18-.5-1.76.23-.99.74-1.21c.58-.29,1.15-.53,1.73-.72.58-.19,1.15-.43,1.73-.72.17-.43.28-.91.32-1.44.05-.53.14-1.01.29-1.44.29-1.15.56-2.26.83-3.31.26-1.06.47-2.17.61-3.35-.05.05-.11.1-.18.14-.14.1-.28.14-.4.14-.5.14-1.01.01-1.51-.4s-.91-.91-1.22-1.51c-.31-.6-.48-1.19-.5-1.78-.02-.59.18-.99.61-1.21.74-.29,1.52-.52,2.34-.68s1.58-.32,2.3-.47c.14-.29.35-.44.61-.47.26-.02.54.04.83.18,1.01-.29,2.03-.46,3.06-.5s2.12-.07,3.28-.07c.34,0,.67.12.99.36.32.24.62.54.88.9.26.36.48.76.65,1.19.17.43.26.83.27,1.19.01.36-.06.66-.22.9-.16.24-.43.36-.81.36-1.03,0-2.05.06-3.06.18s-2.02.25-3.02.4c-.43,1.46-.8,2.87-1.12,4.21-.31,1.34-.61,2.74-.9,4.18,0,.14-.01.29-.04.43-.02.14-.11.29-.25.43,1.3-.29,2.59-.57,3.89-.85,1.29-.28,2.6-.57,3.92-.88Z" style="fill: #fff; stroke-width: 0px;"/>
        <path d="M228.37,85.35c.43.41.81.94,1.13,1.6.32.66.43,1.34.31,2.03-.72,3.24-1.43,6.46-2.14,9.67-.71,3.2-1.35,6.41-1.93,9.63,0,.22-.07.38-.2.5-.13.12-.29.2-.47.23-.18.04-.37.04-.58.02-.2-.02-.38-.07-.52-.14-.41-.31-.72-.66-.94-1.04-.22-.38-.47-.79-.76-1.22-.89-1.82-1.63-3.65-2.21-5.49s-1.11-3.74-1.57-5.71c-.72,2.11-1.5,4.25-2.34,6.43-.84,2.17-1.7,4.31-2.59,6.43-.14.43-.35.68-.61.76-.26.07-.55.03-.86-.13-.31-.16-.61-.4-.9-.72-.29-.32-.54-.68-.76-1.06-.22-.38-.36-.77-.43-1.17-.07-.4-.04-.74.11-1.03,1.18-3.22,2.33-6.43,3.46-9.63,1.13-3.2,2.2-6.43,3.21-9.67.07-.29.2-.49.4-.61.19-.12.41-.18.65-.18s.47.05.7.14c.23.1.41.22.56.36.43.41.78.88,1.04,1.42.26.54.4,1.09.4,1.64.29,1.97.65,3.92,1.08,5.85s.95,3.81,1.55,5.63c.41-2.4.84-4.78,1.3-7.13.46-2.35.98-4.73,1.58-7.13.07-.29.2-.49.4-.61s.41-.18.65-.18.48.05.72.14c.24.1.43.22.58.36Z" style="fill: #fff; stroke-width: 0px;"/>
        <path d="M248.21,83.19c.34-.14.68-.14,1.04,0,.36.14.7.37,1.01.68.31.31.58.68.81,1.1.23.42.39.83.49,1.24.1.41.11.78.05,1.12-.06.34-.23.58-.52.72-2.88,1.01-5.66,2.21-8.33,3.6-2.68,1.39-5.24,2.88-7.69,4.46,2.16,1.73,4.09,3.64,5.8,5.74,1.7,2.1,3.2,4.39,4.5,6.86.07.22.17.47.29.76.12.29.2.59.25.9.05.31.04.6-.02.86-.06.26-.23.47-.52.61-.22.14-.46.18-.74.11-.28-.07-.54-.2-.79-.38-.25-.18-.47-.38-.67-.61-.19-.23-.32-.41-.4-.56-1.15-2.02-2.44-3.92-3.87-5.72s-3.01-3.42-4.73-4.86c0,.55-.04,1.06-.13,1.53-.08.47-.13.91-.13,1.31-.14.72-.2,1.39-.18,2.02.02.62.17,1.3.43,2.02.07.14.14.34.2.59s.07.52.04.79c-.04.28-.13.52-.29.74-.16.22-.41.36-.77.43-.29,0-.56-.08-.81-.23s-.49-.36-.7-.61-.41-.53-.59-.83c-.18-.3-.34-.59-.49-.88-.41-1.01-.64-2.12-.68-3.33-.05-1.21-.01-2.39.11-3.55-.1,0-.22.05-.36.14-.07.05-.13.1-.18.14-.43.36-.91.38-1.42.05-.52-.32-.95-.79-1.31-1.39-.36-.6-.58-1.22-.67-1.87-.08-.65.09-1.12.52-1.4.41-.41.83-.77,1.28-1.1s.87-.62,1.28-.88c.17-.14.28-.24.32-.29.05-.05.14-.14.29-.29.26-.14.48-.24.65-.29.17-.05.32-.16.47-.32.17-1.3.37-2.58.59-3.85.23-1.27.41-2.56.56-3.85,0-.14.01-.33.04-.56.02-.23.11-.43.25-.59,0-.14.01-.29.04-.43.02-.14.1-.29.22-.43.17-.58.49-.83.95-.76.47.07.93.32,1.39.76.41.43.75.94,1.03,1.51.28.58.41,1.22.41,1.94-.17.55-.32,1.07-.47,1.55-.14.48-.29,1.02-.43,1.62,2.02-1.18,4.08-2.26,6.19-3.26,2.11-1,4.25-1.93,6.41-2.79Z" style="fill: #fff; stroke-width: 0px;"/>
        <path d="M264.12,99.57c.24,1.06.13,2.03-.34,2.93-.47.9-1.12,1.71-1.94,2.43s-1.74,1.34-2.74,1.85c-1,.52-1.89.89-2.68,1.13-.96.34-1.97.57-3.02.7-1.06.13-2.09.14-3.1.02-1.01-.12-1.96-.39-2.84-.81s-1.66-1.03-2.3-1.82c-.17-.24-.34-.52-.5-.83-.17-.31-.31-.64-.41-.99-.11-.35-.15-.7-.13-1.04.02-.35.16-.68.4-.99.17-.33.38-.52.65-.56s.53,0,.81.13c.28.12.55.29.81.5.26.22.48.4.65.54-.07,0-.07.02.02.05.08.04.21.07.38.11l.5.11c.17.04.29.05.36.05h1.94c.48,0,1.03-.08,1.66-.23.62-.16,1.25-.39,1.87-.7.67-.19,1.26-.43,1.76-.7.5-.28,1.01-.57,1.51-.88.12-.19.28-.37.47-.52.19-.16.46-.32.79-.49-.17,0-.33-.05-.49-.16-.16-.11-.33-.16-.52-.16-.62-.17-1.26-.34-1.91-.52-.65-.18-1.28-.44-1.91-.77-1.27-.62-2.46-1.31-3.56-2.07-1.11-.76-2.06-1.77-2.88-3.04-.41-.65-.68-1.31-.83-1.98-.14-.67-.17-1.31-.07-1.93s.32-1.19.68-1.73.85-1.01,1.48-1.42c1.15-.67,2.35-1.22,3.6-1.66,1.25-.43,2.52-.65,3.82-.65.38-.05.76.05,1.12.29.36.24.68.55.97.94.29.38.52.82.7,1.3.18.48.28.93.29,1.35s-.07.78-.23,1.08-.47.47-.9.52c-1.15,0-2.27.22-3.35.65-1.08.43-2.11.97-3.1,1.62-.05.07-.11.13-.18.18-.14.1-.29.14-.43.14.31.34.63.59.97.76.34.17.76.35,1.26.54.96.31,2.02.61,3.19.9s2.28.67,3.35,1.13c1.07.47,2,1.07,2.81,1.8.8.73,1.33,1.7,1.57,2.9Z" style="fill: #fff; stroke-width: 0px;"/>
        <path d="M132.63,142.3c.82,1.46,1.15,2.99.99,4.59-.16,1.6-.8,3.04-1.93,4.34-.41.5-.84,1.02-1.29,1.55-.46.53-.94,1-1.46,1.42-.52.42-1.08.75-1.69.99-.61.24-1.28.32-2,.25-.65,0-1.15-.2-1.51-.59-.36-.4-.7-.83-1.01-1.31-.17.31-.45.48-.85.5-.4.02-.76-.05-1.1-.22-.62-.48-1.12-1.04-1.48-1.67s-.61-1.36-.76-2.18v-5.08c-.41-.31-.78-.71-1.12-1.19s-.59-.97-.76-1.46-.22-.94-.16-1.33c.06-.4.29-.68.7-.85.19-.17.38-.31.58-.43s.44-.18.76-.18v-.97c0-.82.01-1.56.04-2.23.02-.67.11-1.32.25-1.94-.31.12-.55.26-.72.43s-.35.34-.54.5c-.17.65-.48.95-.94.92-.46-.04-.92-.26-1.4-.68-.48-.42-.91-.95-1.28-1.6-.37-.65-.56-1.26-.56-1.84.19-.84.52-1.51.99-2,.47-.49,1.11-.91,1.93-1.24.81-.14,1.67-.34,2.56-.58.89-.24,1.74-.36,2.56-.36.96.07,1.88.2,2.75.38.88.18,1.7.45,2.47.81.77.36,1.49.83,2.18,1.42.68.59,1.3,1.33,1.85,2.21.67,1.3.94,2.5.81,3.6-.13,1.1-.61,2.16-1.42,3.17.48.31.95.71,1.4,1.19.46.48.84,1.03,1.15,1.66ZM127.52,147.42c.31-.48.62-.91.92-1.28s.52-.79.67-1.24c.17-.19.26-.36.29-.5.02-.14.04-.3.04-.47-.48-.34-1.07-.52-1.76-.54-.7-.02-1.29.06-1.76.25-.34,0-.66.05-.97.14-.31.1-.64.14-.97.14-.12.17-.32.28-.59.32s-.49.14-.63.29v5.44h.65c.38.1.76.07,1.12-.07.36-.14.71-.35,1.06-.61.35-.26.68-.56,1.01-.9.32-.34.64-.66.95-.97ZM126.87,133.95c-.17,0-.32-.01-.47-.04-.14-.02-.31-.11-.5-.25h-1.95v.9c0,.34-.07.64-.21.92-.14.28-.38.41-.72.41v1.58h.36c.31-.24.64-.48.99-.72.35-.24.68-.5,1.01-.79.32-.29.62-.59.88-.92s.47-.69.61-1.1Z" style="fill: #fff; stroke-width: 0px;"/>
        <path d="M145.45,142.2c.46.07.9.38,1.33.94s.74,1.15.92,1.78.19,1.2.02,1.69c-.17.49-.62.7-1.37.63-.6-.07-1.24-.07-1.93,0-.68.07-1.35.22-2,.45-.65.23-1.26.53-1.84.9s-1.04.82-1.4,1.35c-.24.31-.47.61-.7.9-.23.29-.47.53-.74.74-.27.21-.55.35-.87.45-.31.1-.66.11-1.04.04-.36,0-.71-.08-1.04-.25s-.65-.4-.94-.68-.54-.61-.76-.97c-.22-.36-.4-.73-.54-1.12-.31-.91-.44-1.87-.4-2.86.05-1,.07-1.93.07-2.79.17-.91.28-1.77.32-2.57.05-.8.14-1.66.29-2.57v-.29c-.14-.46-.2-.94-.18-1.44.02-.5.18-.82.47-.94l.29-.29c.17-1.08.28-2.19.32-3.33.05-1.14-.16-2.24-.61-3.29-.07-.31-.12-.64-.14-.99-.03-.35,0-.66.07-.94.07-.28.21-.49.41-.65s.5-.2.88-.13c1.22.14,2.43.31,3.62.49,1.19.18,2.37.4,3.55.67.36.05.7.22,1.03.5.32.29.61.63.85,1.03.24.4.43.82.56,1.26.13.44.18.85.14,1.22-.04.37-.16.67-.38.88s-.55.3-1.01.25c-.91-.17-1.8-.32-2.66-.47-.86-.14-1.75-.29-2.66-.43.12.46.19.96.22,1.51.02.55.04,1.04.04,1.48.77-.14,1.52-.24,2.27-.29.74-.05,1.48-.16,2.2-.32.36,0,.71.13,1.04.38.34.25.64.57.92.95.28.38.5.8.67,1.26.17.46.26.89.27,1.3.01.41-.06.76-.22,1.04s-.44.46-.85.5c-1.22,0-2.41.13-3.55.38s-2.25.52-3.33.81c-.14.62-.28,1.29-.41,2-.13.71-.2,1.43-.2,2.18v.29c.31-.29.68-.61,1.1-.97.42-.36.86-.62,1.31-.79,1.03-.43,2.08-.73,3.15-.88,1.07-.16,2.21-.15,3.44.02Z" style="fill: #fff; stroke-width: 0px;"/>
        <path d="M161.61,144.82c.34-.09.67-.06,1.01.11.34.17.64.42.92.76.28.34.51.72.7,1.15.19.43.31.85.34,1.24.04.4-.02.75-.16,1.06-.14.31-.41.52-.79.61-1.78.29-3.52.58-5.24.86-1.72.29-3.45.58-5.2.86-.74.14-1.52.31-2.34.5-.82.19-1.58.23-2.3.11-.74-.31-1.38-.85-1.91-1.62-.53-.77-.88-1.6-1.04-2.48-.07-.36-.09-.76-.05-1.19.04-.43.09-.86.16-1.3.07-.43.16-.86.25-1.28.1-.42.18-.81.25-1.17.29-.74.58-1.47.86-2.18.29-.71.58-1.43.86-2.18.58-1.61,1.27-3.15,2.07-4.63.8-1.48,1.57-2.93,2.29-4.37.14-.29.34-.44.58-.47.24-.02.49.02.76.13.26.11.51.25.74.43.23.18.41.34.56.49.31.43.56.97.76,1.62.19.65.14,1.26-.14,1.84-.5,1.1-1.03,2.18-1.57,3.24-.54,1.06-1.05,2.12-1.53,3.2-.48,1.08-.94,2.17-1.37,3.26-.43,1.09-.79,2.23-1.08,3.4.72-.17,1.4-.32,2.03-.45s1.3-.27,2-.41c1.34-.17,2.65-.37,3.92-.61,1.27-.24,2.5-.42,3.67-.54Z" style="fill: #fff; stroke-width: 0px;"/>
        <path d="M182.06,138.31c.07.89.04,1.7-.11,2.45s-.38,1.43-.72,2.05-.74,1.21-1.21,1.75c-.47.54-.99,1.05-1.57,1.53-.96.98-2.06,1.93-3.31,2.83-1.25.9-2.52,1.58-3.82,2.03-1.63.41-3.08.34-4.36-.2s-2.35-1.36-3.22-2.45-1.53-2.36-1.96-3.82c-.43-1.45-.61-2.87-.54-4.27.07-1.03.27-2.06.59-3.1.32-1.03.75-2.02,1.28-2.95.53-.94,1.16-1.81,1.89-2.61.73-.8,1.54-1.49,2.43-2.07-.36-1.27.06-1.91,1.26-1.91,1.66.31,3.25.68,4.77,1.12,1.52.43,2.86,1.14,4.01,2.12,1.18,1.01,2.19,2.14,3.04,3.38.85,1.25,1.36,2.62,1.53,4.1ZM177.81,137.3c.1-.48.02-.91-.23-1.28-.25-.37-.6-.7-1.04-.99-.44-.29-.95-.54-1.51-.76-.56-.22-1.13-.41-1.71-.58l-.36.4c-.14.14-.35.22-.63.22s-.5-.07-.67-.22c-1.29.82-2.42,1.77-3.37,2.86-.95,1.09-1.66,2.3-2.14,3.62-.07.34-.16.68-.27,1.04-.11.36-.2.72-.27,1.08-.07.36-.1.73-.07,1.1.02.37.12.71.29,1.03v.29c.17.17.32.26.47.29.14.02.3.04.47.04.34,0,.73-.01,1.17-.04.44-.02.83-.12,1.17-.29.96-.33,1.86-.8,2.7-1.39.84-.59,1.64-1.21,2.41-1.85.34-.24.7-.52,1.1-.85.4-.32.76-.68,1.1-1.06.33-.38.64-.8.9-1.24.26-.44.43-.92.5-1.42Z" style="fill: #fff; stroke-width: 0px;"/>
        <path d="M198.15,130.06c.19,1.73.32,3.42.4,5.06.07,1.64-.06,3.33-.4,5.06-.14.79-.3,1.61-.47,2.47-.17.85-.37,1.7-.61,2.54-.24.84-.52,1.64-.85,2.41-.32.77-.73,1.48-1.21,2.12-.41.79-.92,1.29-1.55,1.49-.62.2-1.27.22-1.94.04-.67-.18-1.33-.5-1.96-.97-.64-.47-1.15-.98-1.53-1.53l-.61-.61c-.34.79-.73,1.58-1.17,2.36-.44.78-.91,1.57-1.39,2.36-.07.24-.2.37-.38.4-.18.02-.38,0-.59-.07-.22-.07-.44-.17-.67-.31-.23-.13-.43-.23-.59-.31-1.27-1.27-2.18-2.69-2.74-4.25-.55-1.56-.91-3.22-1.08-4.97-.31-1.9-.48-3.79-.5-5.69-.02-1.9.05-3.8.22-5.72.05-.58.19-.97.43-1.17.24-.2.52-.27.85-.2.32.07.66.25,1.01.52.35.28.67.61.95.99s.52.79.68,1.22c.17.43.23.83.18,1.19-.17,1.44-.25,2.81-.25,4.12s.08,2.68.25,4.12c0,.48.01.94.04,1.37.02.43.12.82.29,1.15.48-.77.95-1.62,1.42-2.56.47-.94.94-1.87,1.42-2.81.17-.24.4-.36.68-.36s.58.07.86.22c.29.14.56.32.81.52.25.2.43.39.52.56.31.48.58,1.01.81,1.58.23.58.27,1.1.13,1.58,0,.31.01.61.04.9s.11.52.25.68c0,.07.05.15.14.23.1.08.21.14.34.18.13.04.25.05.34.04.1-.01.14-.05.14-.13.48-.33.82-.76,1.03-1.28.2-.52.39-.94.56-1.28.17-.48.32-.95.45-1.42s.2-.94.2-1.42c.62-1.9,1.02-3.85,1.19-5.85.17-2,.08-3.95-.25-5.85,0-.24,0-.51.02-.81.01-.3.07-.57.18-.81.11-.24.27-.43.49-.56.22-.13.53-.16.94-.09.62.34,1.16.85,1.6,1.55s.74,1.36.88,1.98Z" style="fill: #fff; stroke-width: 0px;"/>
      </g>
      <g>
        <g>
          <path d="M260.89,157.7c-.15-1.95-.23-14.76,22.24-25.62.18-.09.29-.27.28-.47l-1.06-22.46,34.89-47.1,46.68,24.64-47.98,32c-.1.06-.17.16-.2.27l-7.57,24.28c-3.62.46-32.83,4.63-36.84,19.27l-10.43-4.81Z" style="stroke-width: 0px;"/>
          <path d="M317.39,62.69l45.55,24.05-47.28,31.53c-.19.13-.33.32-.4.53l-7.48,23.98c-4.73.63-32.22,4.91-36.78,19.03l-9.64-4.44c-.12-2.56.58-14.5,21.98-24.84.36-.17.58-.55.56-.95l-1.05-22.28,34.53-46.61M317.1,61.41l-35.25,47.59,1.07,22.64c-24.95,12.05-22.49,26.41-22.49,26.41l11.24,5.18c3.48-15.61,36.89-19.52,36.89-19.52l7.67-24.59,48.68-32.46-47.8-25.24h0Z" style="fill: #fff; stroke-width: 0px;"/>
        </g>
        <g>
          <path d="M249.61,185.11c-5.49,0-9.46-1.85-10.11-4.72-.43-1.9.62-4.04,2.95-6.03,2.43-2.07,5.92-3.7,9.83-4.59,2.04-.47,4.07-.7,6.02-.7,5.49,0,9.46,1.85,10.11,4.72.92,4.04-4.81,8.8-12.79,10.62-2.04.47-4.07.7-6.02.7h0Z" style="stroke-width: 0px;"/>
          <path d="M258.3,169.56c5.17,0,9.03,1.74,9.63,4.33.39,1.71-.6,3.67-2.79,5.54-2.37,2.02-5.78,3.61-9.62,4.49-2.01.46-3.99.69-5.91.69-5.17,0-9.03-1.74-9.63-4.33-.85-3.71,4.84-8.3,12.41-10.03,2.01-.46,3.99-.69,5.91-.69M258.3,168.56c-1.93,0-4,.23-6.13.72-8.26,1.89-14.15,6.91-13.16,11.22.73,3.2,5.05,5.11,10.6,5.11,1.93,0,4-.23,6.13-.72,8.26-1.89,14.15-6.91,13.16-11.22-.73-3.2-5.05-5.11-10.6-5.11h0Z" style="fill: #fff; stroke-width: 0px;"/>
        </g>
        <path d="M265.37,174.37c-1.08-2.82-4.99-2.65-7.51-2.72-4.67.07-15.77,2.29-15.08,8.52.18,2.47,2.9,2.87,4.91,2.87-2.11.11-4.93-.22-5.19-2.82-.88-6.6,10.4-9.02,15.35-8.99,2.6.11,6.59.17,7.52,3.16h0Z" style="fill: #fff; stroke-width: 0px;"/>
        <polygon points="302.27 87.15 318.03 65.19 356.24 85.29 318.71 68.73 302.27 87.15" style="fill: #fff; stroke-width: 0px;"/>
        <path d="M270.41,159.21c4.31-13.83,21.73-19.06,34.86-18.53,0,0-2.61.21-2.61.21-12.31,1.47-27.01,5.95-32.26,18.32h0Z" style="fill: #fff; stroke-width: 0px;"/>
        <polygon points="330.43 37.21 316.34 59.21 296.99 50.79 314.43 61.71 297.19 81.21 317.77 63.3 337.49 69.21 319.25 60.75 330.43 37.21" style="fill: #fff; stroke-width: 0px;"/>
        <path d="M345.08,94.2c-10.49,7.35-21.29,14.26-32.18,21,0,0,.16-.21.16-.21l-2.07,6.09c-.72,2.02-1.42,4.05-2.17,6.06.54-2.08,1.14-4.14,1.7-6.21l1.8-6.18c.03-.09.08-.16.16-.21,10.7-7.04,21.51-13.93,32.59-20.35h0Z" style="fill: #fff; stroke-width: 0px;"/>
        <path d="M295.44,96.08c-3.2,4.92-6.47,9.8-9.8,14.64.29,1.28.27,4.31.45,6.18.1,2.11.19,4.23.23,6.35-.5-4.21-.85-8.42-1.11-12.65,3.23-4.93,6.78-9.71,10.22-14.52h0Z" style="fill: #fff; stroke-width: 0px;"/>
        <path d="M283.55,133.47c-7.79,4.97-19.41,12.71-20.46,22.18,0,0,4.1,2.14,4.1,2.14l-4.21-1.92s-.07-.07-.07-.11c.29-9.75,12.86-18.03,20.64-22.29h0Z" style="fill: #fff; stroke-width: 0px;"/>
      </g>
    </g>
  </g>
</svg>