<svg id="code" xmlns="http://www.w3.org/2000/svg" xmlns:xlink="http://www.w3.org/1999/xlink" viewBox="0 0 351.2 315.8" shape-rendering="geometricPrecision" text-rendering="geometricPrecision">
<style><![CDATA[
#code-s-g7_to {animation: code-s-g7_to__to 3000ms linear infinite normal forwards}@keyframes code-s-g7_to__to { 0% {transform: translate(199.205704px,154.150017px)} 16.666667% {transform: translate(199.205704px,134.150017px)} 20% {transform: translate(199.205704px,154.150017px)} 40% {transform: translate(199.205704px,154.150017px)} 60% {transform: translate(199.205704px,134.150017px)} 63.333333% {transform: translate(199.205704px,154.150017px)} 100% {transform: translate(199.205704px,154.150017px)}} #code-s-path46 {animation: code-s-path46_c_o 3000ms linear infinite normal forwards}@keyframes code-s-path46_c_o { 0% {opacity: 0} 16.666667% {opacity: 0} 20% {opacity: 1} 36.666667% {opacity: 0} 60% {opacity: 0} 63.333333% {opacity: 1} 80% {opacity: 0} 100% {opacity: 0}} #code-s-path47 {animation: code-s-path47_c_o 3000ms linear infinite normal forwards}@keyframes code-s-path47_c_o { 0% {opacity: 0} 16.666667% {opacity: 0} 20% {opacity: 1} 36.666667% {opacity: 0} 60% {opacity: 0} 63.333333% {opacity: 1} 80% {opacity: 0} 100% {opacity: 0}} #code-s-g9_to {animation: code-s-g9_to__to 3000ms linear infinite normal forwards}@keyframes code-s-g9_to__to { 0% {transform: translate(44.149998px,221.050003px)} 16.666667% {transform: translate(44.149998px,221.050003px)} 36.666667% {transform: translate(44.149998px,201.050003px)} 100% {transform: translate(44.149998px,201.050003px)}} #code-s-g9 {animation: code-s-g9_c_o 3000ms linear infinite normal forwards}@keyframes code-s-g9_c_o { 0% {opacity: 0} 16.666667% {opacity: 0} 20% {opacity: 1} 26.666667% {opacity: 1} 36.666667% {opacity: 0} 100% {opacity: 0}} #code-s-g80_to {animation: code-s-g80_to__to 3000ms linear infinite normal forwards}@keyframes code-s-g80_to__to { 0% {transform: translate(307.050003px,94.849995px)} 43.333333% {transform: translate(307.050003px,94.849995px)} 63.333333% {transform: translate(307.050003px,94.849995px)} 83.333333% {transform: translate(307.050003px,124.849995px)} 100% {transform: translate(307.050003px,124.849995px)}} #code-s-g80 {animation: code-s-g80_c_o 3000ms linear infinite normal forwards}@keyframes code-s-g80_c_o { 0% {opacity: 0} 63.333333% {opacity: 0} 66.666667% {opacity: 1} 73.333333% {opacity: 1} 83.333333% {opacity: 0} 100% {opacity: 0}}
]]></style>
<defs><path id="code-u-svgid_31_" d="M53.6,284.8l7.3-8c.3-.3.6-.7.9-.9l-7.3,8c-.3.2-.6.6-.9.9Z"/><path id="code-u-svgid_13_" d="M42,212.1l-2.8,1.5c.3-.1.6-.2.9-.2.5.1.9.3,1.2.7.4.4.5.9.5,1.4s-.2.9-.5,1.3c-.1.1-.2.2-.3.2l2.8-1.5c.1-.1.2-.1.3-.2.3-.3.5-.7.5-1.3c0-.5-.2-1-.5-1.4s-.8-.6-1.2-.7c-.3,0-.6,0-.9.2Z"/><path id="code-u-svgid_1_" d="M286.5,158.6l7.3-8c.3-.3.6-.7.9-.9l-7.3,8c-.2.2-.6.5-.9.9Z"/><path id="code-u-svgid_27_" d="M305,85.8l-2.8,1.5c.3-.1.6-.2.9-.2.5.1.9.3,1.2.7.4.4.5.9.5,1.4s-.2.9-.5,1.3c-.1.1-.2.2-.3.2l2.8-1.5c.1-.1.2-.1.3-.2.3-.3.5-.7.5-1.3c0-.5-.2-1-.5-1.4s-.8-.6-1.2-.7c-.4,0-.7.1-.9.2Z"/></defs><g id="code-s-g1"><g id="code-s-g2"><polygon id="code-s-polygon1" points="100.7,116.9 93,88.1 270.3,46.1 241.3,112.3 241.3,112.3 195.8,258.5 123.4,275.9 119.2,184.3 117,182.5"/><path id="code-s-path1" d="M262.1,53.4L97.4,90.2l23.8,91.1l1.8,1.6l3.9,87.8l63.3-13.8l47.6-146.3v0l24.3-57.2Z" fill="#fff"/></g><g id="code-s-g3"><path id="code-s-path2" d="M113.1,151.2l-.7-.7l1.8-3.9.7.8-1.2,2.7l2.8-1l.7.8-4.1,1.3Z"/><path id="code-s-path3" d="M113.5,144l1.6-1.4c.5-.5,1-.7,1.6-.7.5,0,1,.3,1.5.9l.6.7c.5.5.7,1.1.7,1.6s-.3,1-.8,1.5l-.5.5l2.5,2.7-1.1,1-6.1-6.8Zm4.3,1.5c.2-.2.3-.3.3-.5s-.1-.4-.3-.6l-.7-.8c-.2-.2-.4-.4-.6-.4s-.3.1-.5.2l-.5.5l1.9,2.1.4-.5Z"/><path id="code-s-path4" d="M121.2,144.6l1.2-2.7-2.8,1-.7-.8l4.1-1.4.7.7-1.8,3.9-.7-.7Z"/><path id="code-s-path5" d="M121.8,136.3l1.4-1.3l7.3,5.7-1.1,1-1.4-1.2v0l-1.2,1.1l1,1.5-1,.9-5-7.7Zm5.3,3.4l-3.5-2.9v0l2.6,3.7.9-.8Z"/><path id="code-s-path6" d="M124.9,133.5l1.1-1l5.3,5.7l1.7-1.6.9,1-2.8,2.6-6.2-6.7Z"/><path id="code-s-path7" d="M128.2,130.5l1.1-1l5.3,5.7l1.7-1.6.9,1-2.8,2.6-6.2-6.7Z"/><path id="code-s-path8" d="M137.5,129.1l-4.8-2.7l1.1-1l3,1.8v0l-1.5-3.1l1-.9l2.3,5l2.6,2.8-1.1,1-2.6-2.9Z"/><path id="code-s-path9" d="M142.8,128.8c-.5,0-1.1-.3-1.6-.9l-3.2-3.5c-.5-.5-.7-1.1-.7-1.6s.3-1.1.8-1.5c.5-.5,1-.7,1.6-.6.5,0,1.1.3,1.6.9l3.2,3.5c.5.5.7,1.1.7,1.6s-.3,1.1-.8,1.5c-.5.5-1.1.7-1.6.6Zm.6-2.7l-3.4-3.6c-.4-.4-.8-.5-1.2-.2s-.3.7.1,1.2l3.4,3.6c.4.4.8.5,1.2.2.4-.4.3-.8-.1-1.2Z"/><path id="code-s-path10" d="M146.6,125.3c-.5,0-1.1-.3-1.6-.9l-4.7-5.1l1.1-1l4.8,5.2c.2.2.4.4.6.4s.4-.1.5-.2c.2-.2.3-.3.3-.5s-.1-.4-.3-.6l-4.8-5.2l1-.9l4.7,5.1c.5.5.7,1.1.7,1.6s-.3,1-.8,1.5-.9.6-1.5.6Z"/><path id="code-s-path11" d="M144.3,115.8l1.6-1.4c.5-.5,1.1-.7,1.5-.7.5,0,1,.3,1.4.8l.4.4c.6.7.8,1.3.5,1.9v0c.3-.2.6-.2,1,0c.3.1.7.4,1,.8l1.1,1.2c.2.2.3.3.4.4s.3.2.4.3l-1.1,1c-.1-.1-.3-.2-.4-.2-.1-.1-.3-.2-.5-.5l-1.1-1.2c-.3-.3-.5-.5-.7-.5s-.4.1-.7.3l-.4.3l2.6,2.9-1.1,1-5.9-6.8Zm4.1,1.5c.2-.2.3-.4.3-.6s-.1-.4-.3-.7l-.5-.5c-.2-.2-.4-.4-.6-.4s-.4,0-.6.2l-.5.4l1.8,1.9.4-.3Z"/><path id="code-s-path12" d="M149.7,110.8l1.6-1.5c.5-.5,1.1-.7,1.5-.7.5,0,1,.3,1.4.8l.2.3c.3.3.5.7.6,1s.1.6-.1.9v0c.7-.3,1.4-.1,2.1.7l.5.6c.5.5.7,1,.7,1.6c0,.5-.3,1-.8,1.5l-1.7,1.5-6-6.7Zm3.9,1.4c.2-.2.3-.4.3-.6s-.1-.4-.3-.7l-.3-.4c-.2-.2-.4-.4-.6-.4s-.4,0-.6.2l-.5.5l1.6,1.8.4-.4Zm3,2.8c.2-.2.3-.3.3-.5s-.1-.4-.3-.6l-.5-.6c-.3-.3-.5-.5-.7-.5s-.4.1-.7.3l-.5.4l1.9,2.1.5-.6Z"/><path id="code-s-path13" d="M154.3,106.5l1.4-1.3l7.3,5.7-1.1,1-1.4-1.2v0l-1.2,1.1l1,1.5-1,.9-5-7.7Zm5.3,3.4l-3.5-2.9v0l2.6,3.7.9-.8Z"/><path id="code-s-path14" d="M163.4,109.9c-.5,0-1-.3-1.5-.9l-.4-.4l1-.9.4.5c.4.4.8.5,1.1.1.2-.2.3-.3.3-.5s-.1-.4-.3-.6c-.3-.3-.6-.5-.9-.6s-.8-.1-1.4-.1c-.8,0-1.4-.1-1.9-.2s-.9-.4-1.2-.8c-.5-.5-.7-1.1-.7-1.6s.3-1,.8-1.5s1-.7,1.5-.6s1,.3,1.5.9l.3.3-1,.9-.3-.3c-.2-.2-.4-.4-.6-.4s-.4,0-.5.2c-.4.3-.3.7.1,1.1.2.2.5.4.8.5s.8.1,1.4.1c.8,0,1.4,0,1.9.2s.9.4,1.3.9c.5.5.8,1.1.8,1.6s-.3,1-.8,1.5c-.6.5-1.2.7-1.7.6Z"/><path id="code-s-path15" d="M160.9,100.5l2.9-2.6.9,1-1.8,1.7l1.6,1.8l1.4-1.3.9,1-1.4,1.3l1.9,2.1l1.8-1.7.9,1-2.9,2.6-6.2-6.9Z"/><path id="code-s-path16" d="M121.1,158.2l1.4-1.3l7.3,5.7-1.1,1-1.4-1.2v0l-1.2,1.1l1,1.5-1,.9-5-7.7Zm5.2,3.4l-3.5-2.9v0l2.6,3.7.9-.8Z"/><path id="code-s-path17" d="M124.1,155.4l1.6-1.4c.5-.5,1.1-.7,1.5-.7.5,0,1,.3,1.4.8l.4.4c.6.7.8,1.3.5,1.9v0c.3-.2.6-.2,1,0c.3.1.7.4,1,.8l1.1,1.2c.2.2.3.3.4.4s.3.2.4.3l-1.1,1c-.1-.1-.3-.2-.4-.2-.1-.1-.3-.2-.5-.5l-1.1-1.2c-.3-.3-.5-.5-.7-.5s-.4.1-.7.3l-.4.3l2.6,2.9-1.1,1-5.9-6.8Zm4.1,1.5c.2-.2.3-.4.3-.6s-.1-.4-.3-.7l-.5-.5c-.2-.2-.4-.4-.6-.4s-.4,0-.6.2l-.5.4l1.8,1.9.4-.3Z"/><path id="code-s-path18" d="M127.9,151.9l2.9-2.6.9,1-1.8,1.7l1.6,1.8l1.4-1.3.9,1-1.4,1.3l1.9,2.1l1.8-1.7.9,1-2.9,2.6-6.2-6.9Z"/><path id="code-s-path19" d="M132.9,147.3l1.6-1.5c.5-.5,1.1-.7,1.5-.7.5,0,1,.3,1.4.8l.2.3c.3.3.5.7.6,1s.1.6-.1.9v0c.7-.3,1.4-.1,2.1.7l.5.6c.5.5.7,1,.7,1.6c0,.5-.3,1-.8,1.5l-1.7,1.5-6-6.7Zm4,1.4c.2-.2.3-.4.3-.6s-.1-.4-.3-.7l-.3-.4c-.2-.2-.4-.4-.6-.4s-.4,0-.6.2l-.5.5l1.6,1.8.4-.4Zm3,2.8c.2-.2.3-.3.3-.5s-.1-.4-.3-.6l-.5-.6c-.3-.3-.5-.5-.7-.5s-.4.1-.7.3l-.5.4l1.9,2.1.5-.6Z"/><path id="code-s-path20" d="M136.8,143.7l2.9-2.6.9,1-1.8,1.7l1.6,1.8l1.4-1.3.9,1-1.4,1.3l1.9,2.1L145,147l.9,1-2.9,2.6-6.2-6.9Z"/><path id="code-s-path21" d="M140.3,140.5l1.1-1l5.3,5.7l1.7-1.6.9,1-2.8,2.6-6.2-6.7Z"/><path id="code-s-path22" d="M149.7,143.6c-.5,0-1.1-.3-1.6-.9l-3.2-3.5c-.5-.5-.7-1.1-.7-1.6s.3-1.1.8-1.5c.5-.5,1-.7,1.6-.6.5,0,1.1.3,1.6.9l3.2,3.5c.5.5.7,1.1.7,1.6s-.3,1.1-.8,1.5-1,.6-1.6.6Zm.7-2.8l-3.4-3.6c-.4-.4-.8-.5-1.2-.2s-.3.7.1,1.2l3.4,3.6c.4.4.8.5,1.2.2s.3-.7-.1-1.2Z"/><path id="code-s-path23" d="M147.4,134.1l1.3-1.2l4.7,3.1v0l-3.7-4l.9-.9l6.2,6.7-1.1,1L150,135v0l4.5,4.9-.9.9-6.2-6.7Z"/><path id="code-s-path24" d="M157.6,136.3c-.5,0-1.1-.3-1.6-.9l-3.2-3.5c-.5-.5-.7-1.1-.7-1.6s.3-1,.8-1.5s1-.7,1.6-.6c.5,0,1.1.3,1.6.9l.5.6-1,.9-.6-.6c-.4-.4-.8-.5-1.2-.2s-.3.7.1,1.2l3.4,3.7c.4.4.8.5,1.1.1.4-.3.3-.7-.1-1.1l-1.2-1.3-.5.5-.9-1l1.5-1.4l2,2.2c.5.5.7,1.1.7,1.6s-.3,1-.8,1.5c-.4.4-.9.6-1.5.5Z"/><path id="code-s-path25" d="M158.4,125.7l-1.1,1-.9-1l3.3-3l.9,1-1.1,1l5.3,5.7-1.1,1-5.3-5.7Z"/><path id="code-s-path26" d="M166.4,128.3c-.5,0-1.1-.3-1.6-.9l-3.2-3.5c-.5-.5-.7-1.1-.7-1.6s.3-1.1.8-1.5s1-.7,1.6-.6c.5,0,1.1.3,1.6.9l3.2,3.5c.5.5.7,1.1.7,1.6s-.3,1.1-.8,1.5c-.6.5-1.1.7-1.6.6Zm.6-2.7l-3.4-3.6c-.4-.4-.8-.5-1.2-.2s-.3.7.1,1.2l3.4,3.6c.4.4.8.5,1.2.2s.3-.8-.1-1.2Z"/><path id="code-s-path27" d="M171.8,123.4c-.5,0-1.1-.3-1.6-.9l-4.7-5.1l1.1-1l4.8,5.2c.2.2.4.4.6.4s.4-.1.5-.2c.2-.2.3-.3.3-.5s-.1-.4-.3-.6l-4.8-5.2l1-.9l4.7,5.1c.5.5.7,1.1.7,1.6s-.3,1-.8,1.5c-.5.4-1,.7-1.5.6Z"/><path id="code-s-path28" d="M175.5,120c-.5,0-1-.3-1.5-.9l-.4-.4l1-.9.4.5c.4.4.8.5,1.1.1.2-.2.3-.3.3-.5s-.1-.4-.3-.6c-.3-.3-.5-.5-.9-.6-.3-.1-.8-.1-1.4-.1-.8,0-1.4-.1-1.9-.2s-.9-.4-1.2-.8c-.5-.5-.7-1.1-.7-1.6s.3-1,.8-1.5s1-.7,1.5-.6s1,.3,1.5.9l.3.3-1,.9-.3-.3c-.2-.2-.4-.4-.6-.4s-.4,0-.5.2c-.4.3-.3.7.1,1.1.2.2.5.4.8.5s.8.1,1.4.1c.8,0,1.4,0,1.9.2s.9.4,1.3.9c.5.5.8,1.1.8,1.6s-.3,1-.8,1.5c-.7.5-1.2.7-1.7.6Z"/><path id="code-s-path29" d="M176.4,114.3l-.7-.7l1.8-3.9.7.8-1.2,2.7l2.8-1l.7.8-4.1,1.3Z"/><path id="code-s-path30" d="M179.1,105l.9-.8l3.5,9.1-.9.8-3.5-9.1Z"/><path id="code-s-path31" d="M180.5,103.7l1.6-1.4c.5-.5,1-.7,1.6-.7.5,0,1,.3,1.5.9l.6.7c.5.5.7,1.1.7,1.6s-.3,1-.8,1.5l-.5.5l2.5,2.7-1.1,1-6.1-6.8Zm4.3,1.6c.2-.2.3-.3.3-.5s-.1-.4-.3-.6l-.7-.8c-.2-.2-.4-.4-.6-.4s-.3.1-.5.2l-.5.5l1.9,2.1.4-.5Z"/><path id="code-s-path32" d="M188.2,104.4l1.2-2.7-2.8,1-.7-.8l4.1-1.4.7.7-1.8,3.9-.7-.7Z"/></g><g id="code-s-g4"><path id="code-s-path33" d="M192.1,251.7c0,0,0,0,0,0-.1,0-.1,0,0,0Z"/><path id="code-s-path34" d="M192.1,251.7c0,0,0,0,0,0s.3.1,0,0Z"/><polygon id="code-s-polygon2" points="192.1,251.7 192.1,251.7 192.1,251.7"/><path id="code-s-path35" d="M134.3,179.4c1.1-.8,1.4-.8,2.2.3c1.5,2,3.1,3.9,4.9,5.6.8.7,1,1.1-.1,1.9-1.8,1.2-3.3,2.8-5,4.3-.6.5-1.2,1.2-1.9,1.5-.5.1-.7,0-1-.3-1.9-2.2-3.9-4.4-5.8-6.6-.5-.6-.5-1,.2-1.5c1.1-.8,2.1-1.7,3.2-2.5l3.3-2.7Zm6.4,6.8c.1-.6-1.1-1.8-1.1-1.8-1.1-1.3-2.3-2.4-3.4-3.7-.3-.3-.6-.6-1-.3-.4,0-.7.2-1,.4-1.7,1.3-3.2,2.7-4.8,4.2-.7.6-.6,1.2,0,1.8c1.4,1.5,2.7,3,4.1,4.5.5.6,1,.6,1.6.1c1.6-1.4,3.2-2.7,4.8-4.1.8-.8.8-.8.8-1.1Z"/><path id="code-s-path36" d="M135.1,194.7c-.3.1-.6.2-.7-.1s0-.5.2-.7c2.6-2.2,5.2-4.4,7.7-6.6.3-.3.8-.4,1.1,0s-.3.6-.5.8c-2.3,2.1-4.7,4.1-7,6.2-.3.1-.5.4-.8.4Z"/><g id="code-s-g5"><path id="code-s-path37" d="M240.5,113.5c-.5-3.3,3.1-9.7,2.6-13-1.5,1.4-94.9,85.4-96.5,86.7-2.8,2.3-5.3,4.9-8.1,7.3-3.4,2.9-6.5,6.1-9.8,9.1-1.6,1.5-3.1,2.9-4.7,4.3-.2.2-.4.5-.7.4s-.2-.5-.2-.7c0-.1,0-.2,0-.3-.1.2-.1.4-.2.5.1.6.1,1.2.2,1.9.1,1.5-.1,3-.2,4.5-.1,1.4.5,2.8.6,4.2c0,.3,0,.7.3.8.2.1.5-.2.6-.4.6-.7,1.2-1.4,1.8-2c5.4-5.4,11.1-10.4,16.7-15.5c3.1-2.9,94.3-85.3,97.6-87.8Z"/><path id="code-s-path38" d="M147.5,164.9c-.1.1-.9.8-1.1.9-4.2,3.3-8.3,6.6-12.5,9.9-.4.3-.6.3-1,0-1.4-1-2.8-2.1-4.1-3.2-4.4-3.7-8.7-7.6-13-11.5-1-.9-1.9-2.4-3-2.9-.5-.2-2.1-1.2-2.4-1.5-.2,0,.3.6.1.6.1.5.3.8.4,1.3.3.1,1.2.7,1.5.9.3-.1.5.2.7.3.8.6,1.5,1.3,2.2,1.9c5.6,4.8,11.1,9.6,16.7,14.4.5.4.5.7,0,1.1-.9.7-1.8,1.3-2.6,2-2.9,2.3-5.8,4.5-8.7,6.8-.5.4-.8.5-1,.2-.1.1-.2.2-.2.3.1.5.3,1,.4,1.5.1,0,.2-.1.3-.1c0-.3.1-.4.3-.6c5-4.1,10-8.2,15.1-12.3c3.4-2.8,6.9-5.4,10.4-8.1.5-.4,1.6-1.5,1.9-1.4L254.1,73.3v-1L147.5,164.9Z"/></g><g id="code-s-g6"><path id="code-s-path39" d="M189.9,165.6c-.1.1-.1.1,0,0-.1.1-.1.1,0,0Z"/><path id="code-s-path40" d="M191,164.4c-.1.1-.2.2-.3.3-.3.3-.7.8-.8,1c.2-.3,1.1-1.3,1.1-1.3Z"/></g></g><path id="code-s-path41" d="M209.1,145.9c-2.9,2.5-5.6,5.2-8.3,7.8-2.9,2.8-5.8,5.5-8.7,8.3-.6.6-1.3,1.2-1.9,1.8-.1.1-.2.2-.3.2s-.1,0-.1,0c0,.1,0,.1,0,.2-2.5,2.6-36.4,36.3-36.6,36.5-2,2-4,3.9-6,5.9-2.9,2.8-5.8,5.6-8.7,8.4-2.2,2.1-12.7,11.8-14.9,13.9-.2.2-.6.5-.3.8.2.3.6.2.8-.1c1.6-2.1,12.1-11.4,13.9-13.3.4-.5.8-.6,1.4-.3c1,.5,2,.9,3,1.4c1.2.6,3.6,1.9,4.9,2.4c0,0,0,0,.1,0-1.7,1.7-3.5,3.5-5.2,5.2-3.3,3.2-14.8,14-18.1,17.2-.3.3-.6.6-.2.9.3.3.6.1.9-.2c1.4-1.4,11-10.4,12.3-11.8c1.8-1.9,1.7-1.9,4.2-1c4.7,1.7,8.2,3.5,13,4.8.4.1.7.2,1,.3.6.2.8.9.3,1.3-1.8,1.8-3.6,3.5-5.4,5.3-5.4,5.3-20.2,20-25.7,25.3-.2.2-.5.4-.2.8.3.3.7.2.9-.1c1.4-1.8,12.5-12.6,14.1-14.2c2.5-2.4,4.9-4.9,7.3-7.4.3-.3.6-.8,1.1-.5c1.2.6,2.9.1,3.6,1.7c0,0,.1.1.2.1c1.4-1,2.5.3,3.8.4.8.1,1.3.9,2,.9c1.6-.1,2.8,1,4.3,1c.4,0,.7.7.8.6c1-.6,1.8.2,2.7.4.7.2,1.3.6,2.1.5.7-.1.8.9,1.3.8c1.9-.1,5.1,1,7.3,1.7.5.2.6.7.3,1.1-1.6,1.7-3.1,3.5-4.7,5.2-.2.2-.7.6-.4.9.4.4.8-.1,1.1-.4c2.9-3.3,5.7-6.6,8.6-9.9.7-.8,1.3-.8,2.2-.5c1.9.6,3.5,2.2,5.6,2.3c0,0,.1,0,.1,0c.8.3,1.3,1.1,2.3.8.1,0,.1,0,.2,0c.2,0,.3-.1.5-.1.2-.5.4-1,.6-1.5c0,0,0,0,0,0-.2.6-.8.8-2,.2-1.3-.7-2.6-1.2-4-1.5-1.1-.3-2.1-.8-3.1-1.3-.5-.2-.6-.5-.2-.9c2-2.3,4.1-4.5,6.1-6.8c1.4-1.5,2.8-3,4.2-4.5.2-.3.5-.5.8-.8.6-.5,1.2-.8,1.3.4.1.4.4.8.7.9s1.1.6,1.2.7c.2-.1.4-.1.6-.1-.1-.2-.9-.9-1-1.1l-.5-.7c-.4-1.3-.6-2.7-.9-4.1-.7-3.4.1-6.6.7-9.8.5-2.9,1.7-5.6,2.8-8.3.8-2.1,1.6-4.3,2.7-6.3c2.6-4.7,5.7-9,10-12.4.5-.4,1.6-.9,2-1.4.2-.2.4-.5.2-.8-.3-.3-.6-.2-.8,0-.4.3-1.3.5-1.6.1-.6-.8-1.5-.9-2.4-1.2-1.5-.4-2.9-.8-4.3-1.4-.6-.2-.7-.5-.2-1c4.2-4,7.4-7.4,11.8-11.2l.6-1.6c-6.7,6.6-13.5,13.2-20.3,19.7-.1-.1-.2-.2-.4-.2-4.9-1.3-11.1-3.7-15.8-5.5-1.1-.4-1.3-1.4-.5-2.3c4.9-4.9,9.9-9.7,14.8-14.6.6-.6,1.2-.6,1.9-.3c4.5,1.5,9,2.9,13.5,4.4.4.1.8.4,1.2.5s.9.6,1.1-.1c.2-.5-.2-.9-.7-1.1-.9-.3-1.9-.5-2.8-.8-3.8-1.2-7.5-2.7-11.1-4.4-.6-.3-.8-.6-.2-1.2c3.1-2.9,6.1-5.9,9.2-8.7.6-.5,1.5-1.1,2.5-.8l10.4,4.2.7-2.1-9.5-3.2c-1.6-.7-1.6-.7-.2-1.9.3-.2.5-.5.7-.7s2.5-2.6,5.5-5.6v0c.5-.7,1.3,0,1.3,0l5.6,3.2v-1l-5.2-3c-.3-.2-.4-.6-.1-.8c5.5-5.7,12.3-12.6,12.5-12.7-.1-.3-.3-.6-.5-.8c0,.1-3.1,3.3-6.8,7-.2.2-.4.2-.6.1l-6.7-3.9c-.2-.1-.3-.5-.1-.7c7.5-7.1,18.1-17.2,18.4-17.5.1-.1.2-.1.3-.2c0-.5,0-1,0-1.5-.5,1.1-25.2,24.9-25.9,25.6Zm-54.2,54.3c1.9-1.9,5.1-5.1,8.8-8.7.3-.3.7-.4,1-.2l7.3,3c.3.1.4.5.2.8-2.5,2.5-5.6,5.6-8.8,8.7-.3.3-.8.4-1.3.2-1.7-.8-5.9-2.7-7.2-3.3-.1-.1-.1-.3,0-.5Zm-14.5,14.9c-.6-.3-.6-.6-.2-1.1.4-.4.9-.9,1.3-1.3c3.8-3.5,11.3-10.6,11.3-10.6s.4-.4.6-.6c0,0,.1-.1.3-.1.1,0,.2.1.2.1l7.4,3.5c.3.1.4.5.1.8-5.8,5.7-11,10.9-11.6,11.5l-1.4,1.4c-.5-.2-.3-.2-.5-.2-2.2-.7-5.4-2.5-7.5-3.4Zm14.8,18.5l-3.7-1.4-10-3.7c0,0-1.6-.5-1-1.1c1.4-1.3,2.7-2.7,4.1-4c2.3-2.2,4.6-4.5,6.9-6.7.4-.3.7-.8,1.2-.9c0,.1,0,.1-.1.2.2-.2,1.9-1.9,4.4-4.3.4-.4.9-.5,1.4-.3l15.4,5.8c0,0,.4.1.4.5s-.3.6-.3.6l-8.3,7.5c-.4.5-.9.9-1.2,1.5c0,0-3.4,3.2-3.4,3.3c0,.5-.4.7-.6,1-.7.7-1.7,1.6-2.5,2.4-.3.3-.7.4-1.1.2l-1.6-.6Zm37.4,2.7c-4.1,4.6-8.2,9.1-12.2,13.7-.6.7-1.3,1.4-1.9,2.1-.4.5-1.1.5-1.6.3-.1,0-.2-.1-.3-.1-.8-.2-3.6-1.1-4.4-1.1-1-.1-2.1-.3-3-.6-6-2.4-12.4-3.5-18.4-5.8-1.1-.4-1.3-1.4-.5-2.2c3.3-3.3,6.6-6.6,10.1-9.6.6-.5,3.5-3.4,4.7-4.6.3-.3.9-.5,1.3-.3c3.8,1.3,12.1,4.1,12.3,4.2.6.4,1.3.5,2,.6c2.7.4,5.3,1.7,8,1.5c1.5-.1,2.8.7,4,1.7.1,0,.1,0,.2.1-.1-.1-.2,0-.3.1Zm3.4-17.8c-.6,1.8-1,3.7-1.3,5.6-.4,2.6-1,5.2-.4,7.8.3,1.1,0,2-.5,2.8-.2-.1-.4-.1-.6-.1-1.7-.5-5.9-1.5-7.6-2.1-1.1-.5-2.3-.8-3.6-1.1-.9-.2-1.8-.5-2.7-.9l-11.4-3.9c-.3-.1-.4-.5-.2-.8c2.3-3,15.5-15.7,16.5-15.5c4,1,8,1.9,12,2.9c2.4.7,1.5.5-.2,5.3Zm5.7-26.1c1-1,1.8-1,3.8.4c1.3,1,2.9,1.2,4.5,1.3.3,0,.5.2.8.3c0,.4-.3.5-.5.7-2.4,2.3-4.9,4.6-6.7,7.4-1.9,2.9-3.7,6-4.8,9.3-.3.7-.7.8-1.3.7-2.3-.6-4.6-1-6.8-1.8-1.7-.5-3.3-1.1-5-1.6-.9-.3-.3-.7,0-1c3.3-3.2,6.6-6.4,9.9-9.6c2-2.1,4.1-4.1,6.1-6.1Zm-8.8,4.4c.4.1,1.9.6,2.7.8-.1.1-.3.3-.4.4-3.2,3.1-6.4,6.3-9.7,9.5-1.1,1.1-2.3,2.1-3.4,3.2-.1.1-2.6,2.4-5.6,5.3-.3.3-.9.4-1.3.3L160,210.6c-.5-.2-.7-.9-.3-1.3c7.2-7,17.4-16.9,17.4-17.6c0,0,0,0,0-.1c0,0,0,.1,0,.1.3-.2.7,0,1.1.2c4.9,1.5,9.8,3.2,14.7,4.9Zm-10.8-11.4c-1.5,1.4-3,2.9-4.4,4.3-.1.1-.3.3-.5.4-.3.3-1.6,1.6-3.6,3.6-.3.3-.7.3-1,.2l-7.2-3.1c-.3-.1-.4-.6-.2-.9c2.7-2.7,5.6-5.6,8.4-8.4.3-.3.7-.3,1-.2l7.2,3c.5.3.6.8.3,1.1Zm12.7-12.3l-4.1,3.9c-1.9,1.8-3.8,3.7-5.7,5.6-.4.4-.9.9-1.3,1.3s-.9.5-1.4.3l-7.1-3c-.4-.2-.5-.6-.2-.9c4-4,7.8-7.7,10.5-10.4.5-.5,1.3-.7,1.9-.4c1.1.4,2.7,1,2.9,1c1.6.4,2.3.6,3.4,1.3.2.1.6.3.8.6.6,0,.6.4.3.7ZM208,160.3c-3.5,3.4-7,6.8-10.5,10.2-.3.3-.5.4-1,.3-2.2-.9-4.3-1.9-6.3-3.1-.1,0,0,0-.9-.5-.4-.2-.4-.7-.2-1c.4-.4.9-.9,1.5-1.5.1-.2.2-.3.3-.3c1.1-1.1,1-1.4,2.2-2.5c1.9-1.7,3.7-3.5,5.5-5.3.4-.4.7-.6,1.4-.3c2.3,1,4.6,1.9,7,2.5c1.5.3,1.9.7,1,1.5Zm6.1-6c-1.4,1.4-2.2,2.3-2.3,2.3-.6.6-1.2,1.4-1.9,1.8-.9.4-1.7-.8-2.6-.9-1.2,0-2.3-.3-3.2-1.1-1.7-1.5-3.7-1.4-2.4-2.5c1.8-1.7,3.7-3.5,5.5-5.2.2-.1.4-.2.5-.1.5.3,6.7,4.7,6.7,4.7s.4.2-.3,1Zm8.7-9.1c-.1.2-.3.3-.3.3-.1.1-.4.4-.5.5-2.4,2.5-4.3,4.4-6.3,6.5-.2.2-.5.3-.8.1l-2-1.3c-1.4-.5-2.8-1.8-2.8-1.8s-1.4-1-2-1.5c-.2-.1-.2-.3,0-.5.3-.3.7-.7,1-1c.1-.1,2.7-2.5,6.1-5.8.1-.1.1-.2.5-.2s.6.3.6.3l1.7.9l4.6,3c-.1.1.4.3.2.5Z"/><g id="code-s-g7_to" transform="translate(199.205704,154.150017)"><g id="code-s-g7" transform="translate(-199.205704,-154.150017)"><path id="code-s-path42" d="M253.2,74.3c0,0-16.2,37-32,87.4l-5.1-4-2.4-5.1-.9-7.9l1-8.3-6.8,5.7-10.1,10-7.5,5l.3,1.7.5,9.8-1.1,3.1-5.7,4.3-3.3.6-1.5,2.1-1.7,9.5.3,3.7l2.4,3.5l1.9,3.9-.9,4.3-.4,3.4l2.1,4.9l1.4,6.2-1.7,6.3-2.7,4-8.1,7.3-5,.1-4.4-3.5-1-4.9-7.6,2.1-4.1-1.3-3.2-2.1-.2-1.4l5.2-7.3l4.2-7.2-1.4-4l.1-8.1-.1-6.7-1.2-5.9-1.1-7.4-1.8-5.6-3.1-8.5.1-4.8l2.8-4.1l3.5-4l5.1-4.9l2.6-2.5l5-6.2l8.1-9.2l5.6-9.1l5.4-7.9l5.4-6.9l1.7-5.1l4.5-3l8.5-2.3l6.9-3.6l2.8-3.5l6.6-1.7l10.2-4.5l17.1-6.1h4.8v-.3Z" fill="#fff"/><path id="code-s-path43" d="M216.2,155.6c-1.6-1.9-2-4.5-2.4-7-.3-2.1-.1-4.2-.1-6.3c0-2-.1-3.9.7-5.8.8-2.2-.2-4.8,1-6.8c1.2-1.9-1.4-3.5-1.4-3.5-3-1.9-5.6-4.3-8.1-6.8-1.1-1.1-2.4-2-3.8-2.8-.3-.2-.7-.4-1,0-.3.5.2.7.5.8c1.4.6,2.6,1.6,3.7,2.6c2,1.8,3.9,3.8,6.1,5.3c1,.7,2.1,1.5,3.1,2.3.2.1.7.5.1.6-1.4.2-2,1.3-2.8,2.1-1.1,1.2-2,2.6-3.2,3.6-2.9,2.4-5.8,5-10,5.1-.2,0-.4.1-.5.3c0,.3.2.3.4.4.5.3.9.2,1.4.1.8-.2,1.1,0,1,.9-.3,1.5-.6,2.9-1.3,4.3-1.1,2.5-2.7,4.6-4.9,6.2-2.6,2-5.2,3.9-7.9,5.8-.2.1-.6.3-.4.6s.5,0,.7-.1c.4-.2.8-.5,1.3-.7.3-.2.6-.3.9-.4-.3.2-.5.4-.8.6-3.7,2.3-7.4,4.7-11.1,7-2.2,1.4-4.4,2.6-6.8,3.4-.4.1-1.2.2-.9.8.2.5.8.2,1.3.1c2.4-.8,4.4-2.2,6.7-3.2.8-.4,1-.3,1.2.6.7,4.2.3,8.4-.3,12.6-.5,3.4-1.3,6.8-2.8,9.9-.4.8-1.1,1.3-1.1,2.2-.1,1.5-.7,2.8-1.4,4.1-.9,1.8-1.9,3.6-3.1,5.4-.3.4-.5,1.1.1,1.3.5.2.9-.2,1.2-.7c1.4-2.7,3.2-5.2,3.8-8.3c0-.2.1-.4.2-.6.2-.4.3-.5.7-.1c1.2,1.2,2.1,2.4,2.9,3.9c1.4,2.6,2.2,5.2,1.1,8-.7,1.9-.4,3.7.3,5.5.2.6.4,1.3.6,1.9.8,1.8.6,3.8,1.6,5.5.4.8.3,1.5-.1,2.3-1.3,2.2-2.9,4.1-4.4,6.1-.2.2-.7.5-.3.8.3.3.6-.2.8-.4.7-.8,1.4-1.7,2.1-2.5.2-.2.3-.6.5-.5.3.2-.1.5-.2.7-1.6,2.9-3.6,5.5-5.8,8-2.6,2.9-5.7,4.4-9.8,3.2-1.2-.3-2.2-1-2.8-2.1-.8-1.4-.9-3-1.4-4.5-.5-1.9-1.1-3.7-1.4-5.6-.3-1.8-.4-3.7-.8-5.5s-.9-3.6-2.1-5.2c-2-2.7-3.1-5.8-3-9.2.1-3.7.2-7.4-.4-11.1-.9-5.7-1.3-11.4-2.8-17-.2-.7-.3-1.5-.7-2.2-1.6-2.6-2.2-5.5-3-8.3-.3-1.1-.4-2.3-.2-3.5.3-1.9,1.7-3.3,2.8-4.9c1.1-1.7,1.2-1.6,2.7-.3.4.4.9,1.1,1.4.8.3-.2-.5-.8-.8-1.2-1.4-1.9-1.3-1.3.1-2.9.4-.4.8-.9,1.2-1.3c1.4-1.4,2.6-3,4.2-4.1.2-.1.3-.3.5-.2.1.1.1.3.1.5c0,.7,0,1.5,0,2.2c0,.3-.2.9.3.9.4,0,.3-.6.3-1c.2-1.6-.1-3.3,1-4.5s2-2.4,2.9-3.8c1.9-2.9,4.5-5.3,6.8-7.9c2.5-2.8,5-5.7,6.8-9c2.3-4.2,4.9-8.2,7.9-12c1.8-2.2,3.6-4.5,4.9-7.1.9-1.7,1.7-3.5,2.7-5.1c2-3.2,14.6-5,18.9-9c.8-.7,3.5-3.1,4.4-3.4c0,0,33.4-13,37.2-12.3l.7-1.7c-7.3,1-39.5,13.9-39.5,13.9-.4,0-.6.2-.8.6-.5,1.2-2.4.9-3.3,2-1.7,2.3-16.9,7-18.6,9.9-2.3,4-4.4,8.1-7.4,11.7-1.9,2.4-3.8,4.8-5.3,7.5-3.1,5.9-6.6,11.4-11.5,16.1-4,3.8-6.6,8.7-11,12.2-2.6,2.1-4.7,4.7-6.9,7.1-2.6,2.8-4.9,5.8-3.9,10l.8,2.8c.7,2.4,2,4.6,2.9,6.9.9,2.2,1.2,4.6,1.7,6.9.1.5.3,1.2.3,2l1,8.1c.2.6.2,1.6.2,1.8.2,1.8.3,3.7.3,5.5c0,.4-.1.7-.2.9.1.6-.1,1.2-.2,1.8c0,0,.1,0,.1-.1.1.3.2.6.2,1c0,.1,0,.1,0,.2c0,2.2.3,4.4.9,6.6.1.5.2.9.2,1.4-.5,2.9-2.3,5.2-2.3,5.2-.2.5-.5.9-.8,1.3-2.1,2.7-4.1,5.4-6,8.1-.4.7-.4,1.2.1,1.7c2.1,2.1,4.6,3.4,7.7,3.4c2.2.1,4.1-.9,6.1-1.3c1.2-.3,1.6.1,1.6,1.3.3.8.5,1.4.6,2c.1.2.3.4.4.8.8,2,2,3.4,4.4,3.5c1.4.1,2.8.2,4.2.2.3,0,.6-.2.9-.3c2-1.3,3.9-2.7,5.6-4.3l2.5-3c1-1.2,1.9-2.5,2.7-4c1.1-2,1.8-4,1.7-6.3-.1-2.2-.9-4.1-1.4-6.2c0-.2,0-.4,0-.5-.3-.5-.5-1-.5-1.5-.2,0-.3-.2-.4-.5-.2-.6-.4-1.3-.6-1.9-.7-1.7.2-3.3.5-4.9.8-4.2-.9-7.6-3.7-10.6-.3-.3-.9-.6-.6-1.1.1-.1.2-.2.3-.3-.1-.5-.1-1,0-1.4-.1,0-.1.1-.2.1-.2-.3.2-.5.3-.7c1-1.9,1-4,1.4-6c.3-1.4.6-2.8.8-4.1.1-.8.6-1.2,1.3-1.3c3.6-.5,5.7-3,8-5.2.5-.5.7-1.2.9-1.8.1-.3.1-.8.2-1.2c0-.9,0-1.2,0-2.1-.1-.1,0-.7,0-.9l.1-3.3c.3-1.3-.5-2.4-.6-3.6-.1-.5,0-.9.5-1.1c2.6-1.5,4.6-3.6,6.8-5.5c4-3.5,7.9-7,11.9-10.5c1.2-1,2.4-2,3.6-3.1.2-.2.4-.5.7-.3.3.1.1.4.1.6c0,1.4-.2,1.6-.3,2.9c0,.5,0,1,0,1.5c0,.4.1.6,0,1.5c0,1.5.1,3,.2,4.5.1,1.2.3,2.3.7,3.4.3.9.3.9.7,1.6.2.3.3.6.4.9.4,1,.2.6.9,1.7l.5.9c0,0,2.9,2.2,5.1,4l.4-1.3c.3,0-2.5-1.6-5.1-4.7Zm9.9,11.3"/><g id="code-s-g8"><path id="code-s-path44" d="M154.7,211.2c0,0,0-.1,0,0l2.7,6.4c.7,1.6,1,3.3,1.5,5c.2,1.2.5,2.3.7,3.4.1.5,0,.8-.5.9-1.7.4-3.4.9-5.1,1.2-3.1.6-5.6-.7-7.9-2.5-.5-.4-.5-.8-.2-1.4c1.5-2.6,3.4-4.8,5.2-7.2c1.2-1.7,2.5-3.3,3.2-5.3c0,0,.3-.3.4-.5" fill="#fff"/><path id="code-s-path45" d="M186.6,159.9c-2.1,1.4-4.4,2.5-6.4,3.9-.6.4-.8.8-.7,1.5.5,3,.8,6,.3,9-.1.5-.4,1.1.1,1.4s.8-.3,1.3-.5c.2-.1.4-.1.6-.2c2.4-.5,4.3-1.9,6-3.6.5-.5.9-1.1.9-1.8.2-3,.5-6,.1-8.6-.5-2.2-.5-2.2-2.2-1.1Z" fill="#fff"/></g></g></g><path id="code-s-path46" d="M147,215.9l.9-5.5-3.8,5-3.2-8.6-.5,12-7.8-5.6l5.8,9.6-8-1.4l5.3,4.7-5.1,3.1l8.5-1.8c-.1.2,1.5-6.7,7.9-11.5Z" opacity="0"/><path id="code-s-path47" d="M146.5,236.5l-3,5.8l4.5-2.1.8,9.6l5.5-10.4l5.4,7.2v-8.3l5.4,1.9-3.5-5.4c0,0-5.6,4.5-15.1,1.7Z" opacity="0"/></g><g id="code-s-g9_to" transform="translate(44.149998,221.050003)"><g id="code-s-g9" transform="translate(-44.149998,-221.050003)" opacity="0"><polygon id="code-s-polygon3" points="30.9,190.4 26.3,148.7 35.7,157 59,128.5 63.1,149.7 78.3,149.9 61.8,210.3 79.6,204.2 64.3,246.5 86.5,242.1 74.2,272.3 83.2,307.5 51.4,300.3 30.4,313.6 38.5,280.3 6.1,269.7 30.4,250.5 1.8,228.3 26.6,213.7 4.9,187.6" fill="#fff" stroke="#000" stroke-width="2" stroke-miterlimit="10"/><g id="code-s-g10"><g id="code-s-g11"><g id="code-s-g12"><g id="code-s-g13"><polygon id="code-s-polygon4" points="53.5,287.2 60.8,279.2 61.4,284.2 54.1,292.3"/></g><g id="code-s-g14"><polygon id="code-s-polygon5" points="53.3,285 60.6,276.9 60.7,277 53.4,285"/></g><g id="code-s-g15"><g id="code-s-g16" clip-path="url(#code-u-svgid_2_)"><g id="code-s-g17"><path id="code-s-path48" d="M53.6,284.8l7.3-8c.3-.3.6-.7.9-.9l-7.3,8c-.3.2-.6.6-.9.9"/></g><clipPath id="code-u-svgid_2_"><use id="code-s-use1" width="8.200001" height="8.899994" xlink:href="#code-u-svgid_31_"/></clipPath></g></g><g id="code-s-g18"><polygon id="code-s-polygon6" points="56.4,285.3 63.7,277.2 71,286.9 63.7,295"/></g><g id="code-s-g19"><polygon id="code-s-polygon7" points="54.5,283.8 61.8,275.8 65.6,272.3 58.3,280.4"/></g><g id="code-s-g20"><polygon id="code-s-polygon8" points="58.3,280.4 65.6,272.3 68.8,273.3 61.5,281.3"/></g><g id="code-s-g21"><polygon id="code-s-polygon9" points="52,272.5 59.3,264.5 60.6,276.9 53.3,285"/></g><g id="code-s-g22"><polygon id="code-s-polygon10" points="49.4,271.8 56.7,263.7 59.3,264.5 52,272.5"/></g><g id="code-s-g23"><path id="code-s-path49" d="M56.4,285.3l7.2,9.7-3.2-.9-5.7-7.9-1.2,1l.5,5.1-2.6-.7-2.1-19.8l2.6.7L53.2,285h.1c.3-.4.8-.8,1.1-1.2l3.8-3.4l3.2.9-5,4Z"/></g></g><g id="code-s-g24"><path id="code-s-path50" d="M58.6,264.7l-1.8-.4h.1c-2.2,2.5-4.5,5-6.8,7.3c2.2-2.6,4.4-5,6.7-7.4v0v0l1.8.5Z" fill="#fff"/></g><g id="code-s-g25"><path id="code-s-path51" d="M50.1,271.8l1.8.4h-.1c2.1-2.5,4.3-4.9,6.6-7.3-2.1,2.5-4.2,5-6.5,7.4v0v0l-1.8-.5Z" fill="#fff"/></g><g id="code-s-g26"><path id="code-s-path52" d="M51.8,272.8l-2.2-.7.1-.1.6,4.7c.2,1.6.4,3.2.5,4.8.3,3.2.7,6.3.9,9.5-.4-3.2-.8-6.3-1.1-9.5-.2-1.6-.3-3.2-.5-4.8l-.5-4.8v-.1h.1l2.1,1Z" fill="#fff"/></g><g id="code-s-g27"><path id="code-s-path53" d="M68.3,273.4c-.9-.2-1.7-.4-2.6-.6h.1c-2.2,2.5-4.4,4.9-6.8,7.3c2.1-2.5,4.4-5,6.7-7.4v0h.1c.8.2,1.7.4,2.5.7Z" fill="#fff"/></g><g id="code-s-g28"><path id="code-s-path54" d="M58.9,280.4c.8.2,1.7.3,2.5.5h-.1c2.3-2.5,4.6-5,7.1-7.4-2.2,2.6-4.6,5.1-6.9,7.5v0v0c-1-.2-1.8-.4-2.6-.6Z" fill="#fff"/></g><g id="code-s-g29"><path id="code-s-path55" d="M60.8,281.3l-2.5-.6h.1l-5.1,5-.2.2v-.2c-.2-2.1-.4-4.2-.6-6.2-.2-2.1-.4-4.2-.6-6.2.3,2.1.5,4.2.7,6.2.2,2.1.5,4.2.7,6.2l-.2-.1l5.2-4.9v0v0l2.5.6Z" fill="#fff"/></g><g id="code-s-g30"><path id="code-s-path56" d="M63.1,294.6l-2.5-.7v0v0L57.7,290c-1-1.3-2-2.6-2.9-4h.2l-1.5,1.1v-.1c.2,1.6.3,3.3.5,4.9v.1h-.1l-2-.6l2,.5-.1.1c-.2-1.6-.4-3.3-.6-4.9v-.1v0l1.5-1.1.1-.1.1.1c1,1.3,1.9,2.6,2.9,4l2.9,4v0l2.4.7Z" fill="#fff"/></g><g id="code-s-g31"><path id="code-s-path57" d="M62.7,294.1c-1.2-1.4-2.3-2.9-3.4-4.4s-2.3-2.9-3.4-4.4l-.1-.1.1-.1l2.3-1.8c.8-.6,1.6-1.2,2.3-1.8-.8.6-1.5,1.3-2.3,1.9l-2.3,1.9v-.1c1.1,1.5,2.3,2.9,3.4,4.4c1.2,1.5,2.4,3,3.4,4.5Z" fill="#fff"/></g><polygon id="code-s-polygon11" points="52,272.7 58.9,264.9 60.3,277.2 53.3,285" fill="none"/><polygon id="code-s-polygon12" points="56.4,285.3 61.5,281.3 64.3,278.4 70.6,286.9 63.7,294.6" fill="none"/></g><g id="code-s-g32"><g id="code-s-g33"><path id="code-s-path58" d="M57,177.8c-1.7.1-5.1.3-5.1.3s1.1-.1,1.6-.2s1-.3,1.6-.5c.5-.2,1-.5,1.5-.8s.9-.6,1.4-1c1.7.1,2.6.1,4.3.2-.4.3-.8.6-1.2.8s-.8.5-1.3.6c-.4.2-.9.3-1.3.4-.5.1-1,.1-1.5.2Z"/></g><g id="code-s-g34"><path id="code-s-path59" d="M54.5,160c1.6,1,4.9,2.8,4.9,2.8s-.2-.1-.3-.2c-.1,0-.2-.1-.3-.1s-.2-.1-.4-.1c-.1,0-.3-.1-.4-.1-.6-.1-1.2,0-1.8.1-.6.2-1.1.5-1.5.9s-.8.9-1.1,1.5-.5,1.2-.6,2c-.1.7-.1,1.4,0,2s.3,1.2.6,1.7.7.9,1.1,1.2c.5.3,1,.5,1.6.6-2.1-.3-3.2-.5-5.3-.8-.7-.1-1.3-.3-1.9-.7-.5-.4-1-.8-1.3-1.4-.4-.6-.6-1.3-.7-2-.1-.8-.2-1.6,0-2.5.1-.9.4-1.7.7-2.4s.8-1.3,1.3-1.8s1.1-.9,1.8-1.1s1.4-.3,2.1-.2c.2,0,.3,0,.4.1.1,0,.3.1.4.1s.3.1.4.2.2.1.3.2Z"/></g><g id="code-s-g35"><path id="code-s-path60" d="M54.7,170.4c1.9.4,2.9.6,4.8,1c1.1,1.7,1.6,2.6,2.7,4.2-1.7-.1-2.6-.1-4.3-.2-1.3-1.9-1.9-2.9-3.2-5Z"/></g><g id="code-s-g36"><path id="code-s-path61" d="M61.3,157.3c1.6,1.4,2.3,2,3.9,3.4-1.7,1.4-2.6,2.1-4.3,3.6-1.9-1-2.8-1.5-4.7-2.5c2-1.9,3-2.8,5.1-4.5Z"/></g><g id="code-s-g37"><path id="code-s-path62" d="M59.1,154.5c1.7,1.6,2.5,2.3,4.3,3.9.2.2.4.3.5.5.2.2.3.4.5.6s.3.4.4.6.3.4.4.6c-1.6-1.3-2.4-2-3.9-3.4-.1-.3-.3-.5-.5-.8s-.3-.5-.5-.7-.4-.5-.6-.7-.4-.4-.6-.6Z"/></g><g id="code-s-g38"><path id="code-s-path63" d="M54.2,152.2c.8.1,1.5.3,2.2.6s1.3.7,1.9,1.1s1.1,1,1.6,1.5c.5.6.9,1.2,1.3,1.9-2,1.7-3.1,2.6-5.1,4.4-.2-.3-.4-.6-.6-.8-.2-.3-.5-.5-.8-.7s-.6-.4-.9-.5-.7-.2-1-.3c-.7-.1-1.4,0-2.1.2-.6.2-1.2.6-1.8,1.1-.5.5-1,1.1-1.3,1.8s-.6,1.5-.7,2.4-.1,1.7,0,2.5.4,1.4.7,2c.4.6.8,1.1,1.3,1.4.5.4,1.2.6,1.9.7.3,0,.7.1,1,0c.3,0,.7-.1,1-.2s.6-.2.9-.4.6-.4.8-.6c1.3,2.1,1.9,3.1,3.2,5.1-.6.5-1.2.9-1.8,1.2-.6.4-1.3.6-1.9.9-.7.2-1.3.4-2,.4-.7.1-1.4.1-2.1,0-1.4-.2-2.6-.7-3.7-1.5s-2.1-1.8-2.8-3c-.8-1.2-1.3-2.6-1.7-4.2-.3-1.6-.4-3.3-.2-5c.2-1.8.7-3.5,1.4-5s1.7-2.9,2.8-4s2.4-2,3.8-2.5c1.7-.6,3.2-.8,4.7-.5Z"/></g><g id="code-s-g39"><path id="code-s-path64" d="M55.2,159.5c-1.9-1-4.2-1-5.8.2-1.7,1.2-2.4,3.2-2.7,5.2-.2,2,0,4.2,1.2,5.8.6.7,1.5,1.3,2.5,1.7.9.4,2.1.4,3-.1-.9.7-2.1.8-3.2.5s-2.1-.8-2.9-1.7-1.2-2-1.5-3.1c-.2-1.1-.2-2.2-.1-3.3.2-1.1.4-2.2,1-3.2.5-1,1.3-1.9,2.3-2.5s2.1-.9,3.3-.8c1.1.2,2.1.6,2.9,1.3Z" fill="#fff"/></g><path id="code-s-path65" d="M56.5,162.2l-.6-.3c0,0-2.3-3-4.7-2s-3.5,3.9-3.6,5.8c-.2,2,.9,5,4.1,5.3c0,0,.8,0,1.4-.3c0,0-1-1.4-.8-4.3.2-2.8,2.5-3.8,2.5-3.8s1-.5,1.7-.4Z" fill="none"/><g id="code-s-g40"><path id="code-s-path66" d="M55.9,160.5c1.3-1.2,2.6-2.5,3.9-3.7v.3c-1.4-1.4-3-2.6-4.8-3.3-.9-.3-1.8-.5-2.8-.4-.9.1-1.8.4-2.7.8-3.4,1.7-5.6,5.4-6.1,9.2-.3,1.9-.3,3.9.1,5.7.4,1.9,1.1,3.7,2.4,5.1c1.3,1.3,3.1,2.3,5,2.5c1.9.1,3.8-.6,5.5-1.6l-.1.2c-.7-1.3-1.4-2.6-2.1-4c.8,1.3,1.6,2.5,2.4,3.8l.1.1-.1.1c-1.6,1.1-3.6,2-5.7,1.9-1,0-2.1-.3-3-.8-.9-.4-1.8-1-2.6-1.7-1.5-1.5-2.3-3.5-2.7-5.5s-.4-4-.2-6.1c.6-4,3-7.9,6.7-9.8.9-.4,1.9-.8,3-.8c1.1-.1,2.1.2,3,.6c1.9.8,3.5,2.1,4.8,3.6l.1.1-.1.1c-1.3,1.3-2.6,2.4-4,3.6Z" fill="#fff"/></g><polygon id="code-s-polygon13" points="61,157.9 64.3,160.7 60.9,163.5 56.9,161.5" fill="none"/><polygon id="code-s-polygon14" points="55.4,170.9 59.3,171.7 61.5,175.2 58,175" fill="none"/></g><g id="code-s-g41"><g id="code-s-g42"><path id="code-s-path67" d="M54.8,261.6c-1.3.8-3.9,2.4-3.9,2.4s.8-.5,1.2-.9c.4-.3.7-.7,1-1.1s.6-.8.8-1.2c.3-.4.5-.9.7-1.4c1.4-.7,2.1-1,3.5-1.7-.2.4-.4.8-.6,1.2s-.5.7-.7,1.1c-.3.3-.6.6-.9.9-.4.2-.8.5-1.1.7Z"/></g><g id="code-s-g43"><path id="code-s-path68" d="M45.2,248.7c1.7.1,5.1.1,5.1.1s-.2,0-.3,0-.2,0-.3,0-.2,0-.3.1c-.1,0-.2.1-.3.1-.5.2-1,.5-1.3.9-.4.4-.6.8-.8,1.3s-.3,1.1-.3,1.7.1,1.2.3,1.8.5,1.2.9,1.6.8.8,1.2,1.1.9.4,1.4.5c.5,0,1,0,1.5-.2-1.8.7-2.7,1-4.5,1.6-.6.2-1.2.3-1.8.2s-1.1-.2-1.7-.6c-.5-.3-1-.7-1.4-1.3-.4-.5-.8-1.2-1.1-1.9s-.4-1.5-.5-2.2c0-.7.1-1.4.3-2s.5-1.2.9-1.6c.4-.5.9-.8,1.6-1c.1,0,.3-.1.4-.1s.3-.1.4-.1.3,0,.4,0c0,0,.1-.1.2,0Z"/></g><g id="code-s-g44"><path id="code-s-path69" d="M49.8,256.8c1.7-.5,2.5-.8,4.2-1.3c1.6.9,2.4,1.3,4,2.2-1.4.7-2.1,1-3.5,1.7-1.8-1-2.8-1.5-4.7-2.6Z"/></g><g id="code-s-g45"><path id="code-s-path70" d="M49.4,243.6c1.8.4,2.7.6,4.5,1-.8,1.9-1.1,2.8-1.9,4.7-1.9,0-2.9,0-4.8,0c.9-2.3,1.3-3.4,2.2-5.7Z"/></g><g id="code-s-g46"><path id="code-s-path71" d="M46.5,242.3c2,.5,3,.8,5,1.2.2.1.4.1.6.2s.4.1.6.2.4.2.6.3.4.2.6.3c-1.8-.4-2.7-.6-4.5-1-.2-.1-.5-.3-.7-.4s-.5-.2-.7-.4c-.2-.1-.5-.2-.7-.3-.3.1-.6,0-.8-.1Z"/></g><g id="code-s-g47"><path id="code-s-path72" d="M41.6,242.6c.6-.2,1.3-.4,2-.5s1.3,0,2,.1s1.3.3,2,.5c.6.2,1.3.6,1.9,1-.9,2.2-1.3,3.4-2.1,5.7-.3-.2-.6-.3-.8-.4-.3-.1-.6-.2-.9-.2s-.6,0-.9,0-.6.1-.9.2c-.6.2-1.1.6-1.6,1-.4.5-.7,1-.9,1.6s-.3,1.3-.3,2s.2,1.4.5,2.2c.3.7.6,1.4,1.1,1.9.4.5.9,1,1.4,1.3s1.1.5,1.7.6s1.2,0,1.8-.2c.3-.1.6-.2.8-.4.3-.2.5-.4.7-.6s.4-.4.5-.7c.2-.3.3-.5.4-.8c1.9,1.1,2.8,1.6,4.7,2.6-.2.6-.5,1.2-.9,1.7-.3.5-.7,1-1.2,1.5-.4.4-.9.9-1.4,1.2s-1.1.6-1.7.8c-1.2.4-2.4.6-3.6.4-1.2-.1-2.4-.5-3.5-1.2-1.1-.6-2.2-1.5-3.1-2.6s-1.7-2.4-2.3-3.9-.9-3.1-1-4.6.1-3,.5-4.4s1.1-2.6,2-3.6c.7-1,1.8-1.8,3.1-2.2Z"/></g><g id="code-s-g48"><path id="code-s-path73" d="M45.6,247.9c-1.9,0-3.8,1-4.5,2.7-.8,1.6-.6,3.5.1,5.2s1.8,3.3,3.4,4c.8.3,1.8.4,2.7.3s1.8-.5,2.4-1.3c-.4.9-1.3,1.5-2.3,1.8-1,.2-2,.3-3-.1-2-.7-3.3-2.6-4-4.4-.4-.9-.6-1.9-.6-3c0-1,.2-2.1.8-3c.5-.9,1.3-1.6,2.3-2c.7-.3,1.7-.4,2.7-.2Z" fill="#fff"/></g><path id="code-s-path74" d="M47.8,249.5h-.6c0,0-3.1-1.4-4.6.4s-1.1,4.5-.4,6.2s2.9,3.5,5.5,2.5c0,0,.7-.4,1-.9c0,0-1.4-.7-2.4-3s.3-4.1.3-4.1.6-.8,1.2-1.1Z" fill="none"/><g id="code-s-g49"><path id="code-s-path75" d="M46.5,248.4c.5-1.5,1-3.1,1.5-4.6l.1.2c-1.7-.5-3.4-.8-5.1-.5-.8.1-1.7.4-2.3.8-.7.4-1.2,1.1-1.7,1.8-1.9,2.8-2.1,6.6-.9,9.8.6,1.6,1.4,3.2,2.5,4.5s2.5,2.4,4.1,3c1.6.5,3.4.5,5-.2s2.7-2.1,3.7-3.6l.1.2c-1.1-.7-2.2-1.5-3.3-2.3c1.2.7,2.3,1.3,3.5,2l.1.1-.1.1c-.8,1.6-2,3.1-3.7,4-.8.4-1.8.6-2.7.7s-1.9,0-2.8-.3c-1.8-.6-3.3-1.8-4.5-3.2s-2.1-3-2.8-4.7c-1.2-3.5-1-7.6,1.2-10.6.5-.8,1.2-1.4,2-1.9s1.8-.8,2.7-.8c1.8-.2,3.7.2,5.4.8l.2.1-.1.2c-.9,1.5-1.5,2.9-2.1,4.4Z" fill="#fff"/></g><polygon id="code-s-polygon15" points="49.5,244.2 53.3,245 51.8,248.7 47.8,248.8" fill="none"/><polygon id="code-s-polygon16" points="50.6,256.9 54,255.9 57.3,257.7 54.3,259" fill="none"/></g><g id="code-s-g50"><g id="code-s-g51"><path id="code-s-path76" d="M40.6,201.8c3.2-3.7,4.8-5.6,8.1-9.2c2,1.2,3,1.7,5,2.9-3,3.8-4.5,5.7-7.5,9.6-2.2-1.3-3.3-2-5.6-3.3Z"/></g><g id="code-s-g52"><path id="code-s-path77" d="M46.2,205.1c2.9-3.9,4.4-5.8,7.5-9.6-.4,1.3-.7,2-1.1,3.3-3,3.9-4.5,5.9-7.4,9.9.4-1.5.6-2.2,1-3.6Z"/></g><g id="code-s-g53"><path id="code-s-path78" d="M43.6,190.9c3.3-3.3,4.9-4.9,8.3-8.1-1.3,3.9-2,5.9-3.2,9.8-3.3,3.6-4.9,5.4-8.1,9.2c1.1-4.4,1.7-6.6,3-10.9Z"/></g><g id="code-s-g54"><path id="code-s-path79" d="M39.5,188.5c3.5-3.2,5.2-4.8,8.7-7.8c1.5.9,2.2,1.3,3.7,2.2-3.3,3.2-5,4.8-8.3,8.1-1.7-1.1-2.5-1.6-4.1-2.5Z"/></g><g id="code-s-g55"><path id="code-s-path80" d="M43.6,190.9c-1.3,4.3-1.9,6.5-3,10.9c2.2,1.3,3.4,2,5.6,3.3-.4,1.4-.6,2.2-1,3.6-3.8-2.2-5.7-3.3-9.5-5.5c1.4-5.9,2.1-8.8,3.7-14.7c1.7.9,2.5,1.4,4.2,2.4Z"/></g><g id="code-s-g56"><path id="code-s-path81" d="M42.2,191.5c-.9-.3-1.7-.6-2.5-1l.3-.1c-.8,4.3-1.9,8.5-3,12.7l-.2-.5c2.5,1.6,4.9,3.4,7.3,5.2-2.6-1.4-5.2-2.9-7.8-4.4l-.3-.2.1-.3c1-4.2,2.1-8.4,3.5-12.6l.1-.3.2.1c.7.5,1.5.9,2.3,1.4Z" fill="#fff"/></g><g id="code-s-g57"><path id="code-s-path82" d="M42,192.6c-.4,1.7-.8,3.3-1.2,5-.5,1.7-.9,3.3-1.4,5l-.1-.3c.8.5,1.7,1,2.5,1.6.8.5,1.7,1.1,2.5,1.6v0v0l-.1,1.2v-1.2.1c-.9-.5-1.7-.9-2.6-1.4s-1.7-1-2.6-1.5l-.2-.1v-.2c.4-1.7,1-3.3,1.4-5c.7-1.5,1.2-3.2,1.8-4.8Z" fill="#fff"/></g><g id="code-s-g58"><path id="code-s-path83" d="M50.2,183.4c-.7-.4-1.4-.7-2-1.1h.2c-1.2,1.1-2.5,2.2-3.8,3.3-1.3,1-2.6,2.1-4,3c1.2-1.2,2.4-2.3,3.7-3.4s2.5-2.1,3.9-3.1l.1-.1.1.1c.5.4,1.2.8,1.8,1.3Z" fill="#fff"/></g><g id="code-s-g59"><path id="code-s-path84" d="M49.4,183.9c-1,1.1-2,2.2-3,3.2s-2.1,2-3.2,3l-.1.1-.1-.1c-.5-.4-1-.8-1.5-1.2.6.3,1.2.6,1.7.9h-.2c1-1.1,2.1-2.1,3.1-3.1c1-.9,2.1-1.9,3.3-2.8Z" fill="#fff"/></g><g id="code-s-g60"><path id="code-s-path85" d="M48.3,194.5c1.1.4,2.2,1,3.3,1.5l.4.2-.3.4c-.9,1.2-1.9,2.4-3,3.6-1.1,1.1-2.1,2.3-3.4,3.3.8-1.4,1.7-2.6,2.7-3.9c1-1.2,2-2.4,3.1-3.5l.1.6c-1.1-.7-2-1.4-2.9-2.2Z" fill="#fff"/></g><g id="code-s-g61"><path id="code-s-path86" d="M47.6,195.4c-.8,1.2-1.7,2.3-2.6,3.4s-1.8,2.2-2.8,3.2v-.3c.8.6,1.5,1.2,2.3,1.8-.8-.5-1.7-1-2.5-1.6l-.1-.1.1-.2c.9-1.1,1.8-2.2,2.7-3.3.9-.9,1.9-1.9,2.9-2.9Z" fill="#fff"/></g><polygon id="code-s-polygon17" points="50.6,184.5 47.7,193.1 40.6,201.2 43.3,191.7" fill="none"/><polygon id="code-s-polygon18" points="52.5,197.3 52.1,199.1 45,208.2 45.8,205.6" fill="none"/></g><g id="code-s-g62"><g id="code-s-g63"><g id="code-s-g64"><polygon id="code-s-polygon19" points="41.6,220.1 38.8,221.6 41.5,221.9 44.3,220.4"/></g><g id="code-s-g65"><polygon id="code-s-polygon20" points="44.3,220.4 41.5,221.9 41.5,240 44.3,238.5"/></g><g id="code-s-g66"><polygon id="code-s-polygon21" points="38.9,239.6 41.5,240 41.5,221.9 38.8,221.6"/></g></g><g id="code-s-g67"><g id="code-s-g68"><g id="code-s-g69" clip-path="url(#code-u-svgid_14_)"><g id="code-s-g70"><path id="code-s-path87" d="M42,212.1l-2.8,1.5c0,0,0,0,.1,0l2.7-1.5c.1-.1,0,0,0,0"/><path id="code-s-path88" d="M42.1,212l-2.8,1.5c.1,0,.2-.1.3-.1l2.8-1.5c-.2.1-.2.1-.3.1"/><path id="code-s-path89" d="M42.3,211.9l-2.8,1.5c.2,0,.4-.1.6,0c.2,0,.4.1.6.2l2.8-1.5c-.2-.1-.4-.1-.6-.2-.2,0-.4,0-.6,0"/><path id="code-s-path90" d="M43.5,212.1l-2.8,1.5c.1,0,.2.1.3.2l2.8-1.5c-.1-.1-.2-.2-.3-.2"/><path id="code-s-path91" d="M43.8,212.2L41,213.7c.1,0,.1.1.2.2l2.8-1.5c-.1-.1-.2-.1-.2-.2"/><path id="code-s-path92" d="M44,212.4l-2.8,1.5c.1.1.1.1.2.2l2.8-1.5c-.1-.1-.2-.1-.2-.2"/><path id="code-s-path93" d="M44.2,212.6l-2.8,1.5c0,0,0,0,0,0c0,.1.1.1.1.2l2.8-1.5c0-.1-.1-.1-.1-.2c0,0,0,0,0,0"/><path id="code-s-path94" d="M44.3,212.8l-2.8,1.5c.1.1.1.1.1.2l2.8-1.5c0-.1,0-.1-.1-.2"/><path id="code-s-path95" d="M44.5,213l-2.8,1.5c0,.1.1.2.1.3l2.8-1.5c0-.1-.1-.2-.1-.3"/><path id="code-s-path96" d="M44.6,213.3l-2.8,1.5c.1.2.1.5.1.8c0,.5-.2.9-.5,1.3-.1.1-.2.2-.3.2l2.8-1.5c.1-.1.2-.1.3-.2.3-.3.5-.7.5-1.3c0-.3,0-.6-.1-.8"/></g><clipPath id="code-u-svgid_14_"><use id="code-s-use2" width="5.400002" height="5.099991" xlink:href="#code-u-svgid_13_"/></clipPath></g></g><g id="code-s-g71"><path id="code-s-path97" d="M40.2,217.2c.5.1.9-.1,1.2-.4s.5-.7.5-1.3c0-.5-.2-1-.5-1.4s-.8-.6-1.2-.7c-.5-.1-.9.1-1.2.4s-.5.7-.5,1.3c0,.5.2,1,.5,1.4s.7.6,1.2.7Z"/></g><g id="code-s-g72"><g id="code-s-g73"><path id="code-s-path98" d="M40,216.9c.4.1.7-.1,1-.4.2-.3.3-.6.3-1-.1-.7-.6-1.3-1.3-1.4-.7-.2-1.3.5-1.2,1.2c0,.7.5,1.5,1.2,1.6Zm0,0c-.7-.1-1.3-.8-1.4-1.6c0-.4,0-.8.3-1.1s.7-.5,1.1-.4c.8.1,1.4.9,1.3,1.7.1.8-.5,1.6-1.3,1.4Z" fill="#fff"/></g></g><g id="code-s-g74"><path id="code-s-path99" d="M41,213.7c.4-.3.7-.5,1.1-.8s.8-.5,1.2-.7v0c-.3.4-.7.6-1.1.8-.4.3-.8.5-1.2.7v0Z" fill="#fff"/></g><g id="code-s-g75"><path id="code-s-path100" d="M41.9,216.1c.3-.3.7-.5,1-.7.4-.2.7-.4,1.2-.5-.3.3-.7.5-1,.7-.4.2-.7.4-1.2.5Z" fill="#fff"/></g></g><g id="code-s-g76"><path id="code-s-path101" d="M41.5,220.4c-.3.2-.6.4-.9.6s-.6.4-.9.5v-.1c.5.1,1.1.1,1.6.3-.6,0-1.1-.1-1.7-.1h-.2l.2-.1c.3-.2.6-.3.9-.5.3-.3.7-.4,1-.6Z" fill="#fff"/></g><g id="code-s-g77"><path id="code-s-path102" d="M41.5,221.7c.3-.2.6-.4.9-.6s.6-.4,1-.6v.1c-.6-.1-1.2-.2-1.8-.4.6.1,1.2.2,1.8.3h.2l-.2.1c-.3.2-.7.4-1,.5-.2.3-.5.5-.9.6Z" fill="#fff"/></g><g id="code-s-g78"><path id="code-s-path103" d="M41.2,221.9l-2.2-.2.1-.1v4.4c0,1.5,0,2.9,0,4.4c0,2.9,0,5.9-.1,8.8-.1-2.9-.1-5.9-.1-8.8c0-1.5,0-2.9,0-4.4v-4.4-.1h.1l2.2.4Z" fill="#fff"/></g><g id="code-s-g79"><path id="code-s-path104" d="M39.1,239.4l2.2.2-.1.1v-4.4c0-1.5,0-2.9,0-4.4c0-2.9,0-5.9.1-8.8.1,2.9.1,5.9.1,8.8c0,1.5,0,2.9,0,4.4v4.4.1h-.1l-2.2-.4Z" fill="#fff"/></g><polygon id="code-s-polygon22" points="41.6,222 44.1,220.6 44.1,238.3 41.7,239.6" fill="none"/></g></g></g></g><g id="code-s-g80_to" transform="translate(307.050003,94.849995)"><g id="code-s-g80" transform="translate(-307.050003,-94.849995)" opacity="0"><polygon id="code-s-polygon23" points="320.3,64.2 324.9,22.4 315.5,30.7 292.2,2.3 288.2,23.5 273,23.6 289.4,84.1 271.6,78 286.9,120.3 264.7,115.8 277,146.1 268,181.3 299.8,174.1 320.8,187.4 312.8,154 345.1,143.5 320.9,124.3 349.4,102.1 324.6,87.5 346.3,61.4" fill="#fff" stroke="#000" stroke-width="2" stroke-miterlimit="10"/><g id="code-s-g81"><g id="code-s-g82"><g id="code-s-g83"><g id="code-s-g84"><polygon id="code-s-polygon24" points="286.5,161 293.8,153 294.3,158 287,166"/></g><g id="code-s-g85"><polygon id="code-s-polygon25" points="286.2,158.8 293.5,150.7 293.6,150.7 286.3,158.8"/></g><g id="code-s-g86"><g id="code-s-g87" clip-path="url(#code-u-svgid_16_)"><g id="code-s-g88"><path id="code-s-path105" d="M286.5,158.6l7.3-8c.3-.3.6-.7.9-.9l-7.3,8c-.2.2-.6.5-.9.9"/></g><clipPath id="code-u-svgid_16_"><use id="code-s-use3" width="8.199982" height="8.899994" xlink:href="#code-u-svgid_1_"/></clipPath></g></g><g id="code-s-g89"><polygon id="code-s-polygon26" points="289.4,159 296.7,151 303.9,160.7 296.6,168.8"/></g><g id="code-s-g90"><polygon id="code-s-polygon27" points="287.4,157.6 294.7,149.6 298.5,146.1 291.2,154.2"/></g><g id="code-s-g91"><polygon id="code-s-polygon28" points="291.2,154.2 298.5,146.1 301.7,147 294.4,155.1"/></g><g id="code-s-g92"><polygon id="code-s-polygon29" points="285,146.3 292.2,138.2 293.5,150.7 286.2,158.8"/></g><g id="code-s-g93"><polygon id="code-s-polygon30" points="282.3,145.5 289.6,137.5 292.2,138.2 285,146.3"/></g><g id="code-s-g94"><path id="code-s-path106" d="M289.4,159l7.2,9.7-3.2-.9-5.7-7.9-1.2,1l.5,5.1-2.6-.7-2.1-19.8l2.6.7l1.3,12.5h.1c.3-.4.8-.8,1.1-1.2l3.8-3.4l3.2.9-5,4Z"/></g></g><g id="code-s-g95"><path id="code-s-path107" d="M291.5,138.4l-1.8-.4h.1c-2.2,2.5-4.5,5-6.8,7.3c2.2-2.6,4.4-5,6.7-7.4v0v0l1.8.5Z" fill="#fff"/></g><g id="code-s-g96"><path id="code-s-path108" d="M283,145.5l1.8.4h-.1c2.1-2.5,4.3-4.9,6.6-7.3-2.1,2.5-4.2,5-6.5,7.4v0v0l-1.8-.5Z" fill="#fff"/></g><g id="code-s-g97"><path id="code-s-path109" d="M284.8,146.5l-2.2-.7.1-.1.6,4.7c.2,1.6.4,3.2.5,4.8.3,3.2.7,6.3.9,9.5-.4-3.2-.8-6.3-1.1-9.5-.2-1.6-.3-3.2-.5-4.8l-.5-4.8v-.1h.1l2.1,1Z" fill="#fff"/></g><g id="code-s-g98"><path id="code-s-path110" d="M301.3,147.2c-.9-.2-1.7-.4-2.6-.6h.1c-2.2,2.5-4.4,4.9-6.8,7.3c2.1-2.5,4.4-5,6.7-7.4v0h.1c.8.1,1.6.4,2.5.7Z" fill="#fff"/></g><g id="code-s-g99"><path id="code-s-path111" d="M291.8,154.2c.8.2,1.7.3,2.5.5h-.1c2.3-2.5,4.6-5,7.1-7.4-2.2,2.6-4.6,5.1-6.9,7.5v0v0c-.9-.2-1.7-.4-2.6-.6Z" fill="#fff"/></g><g id="code-s-g100"><path id="code-s-path112" d="M293.8,155.1l-2.5-.6h.1l-5.1,5-.2.2v-.2c-.2-2.1-.4-4.2-.6-6.2-.2-2.1-.4-4.2-.6-6.2.3,2.1.5,4.2.7,6.2.2,2.1.5,4.2.7,6.2l-.2-.1l5.2-4.9v0v0l2.5.6Z" fill="#fff"/></g><g id="code-s-g101"><path id="code-s-path113" d="M296,168.4l-2.5-.7v0v0l-2.9-3.9c-1-1.3-2-2.6-2.9-4h.2l-1.5,1.1v-.1c.2,1.6.3,3.3.5,4.9v.1h-.1l-2-.6l2,.5-.1.1c-.2-1.6-.4-3.3-.6-4.9v-.1v0l1.5-1.1.1-.1.1.1c1,1.3,1.9,2.6,2.9,4l2.9,4v0l2.4.7Z" fill="#fff"/></g><g id="code-s-g102"><path id="code-s-path114" d="M295.7,167.9c-1.2-1.4-2.3-2.9-3.4-4.4s-2.3-2.9-3.4-4.4l-.1-.1.1-.1l2.3-1.8c.8-.6,1.6-1.2,2.3-1.8-.8.6-1.5,1.3-2.3,1.9l-2.3,1.9v-.1c1.1,1.5,2.3,2.9,3.4,4.4c1.2,1.5,2.3,3,3.4,4.5Z" fill="#fff"/></g><polygon id="code-s-polygon31" points="285,146.5 291.8,138.7 293.3,151 286.2,158.8" fill="none"/><polygon id="code-s-polygon32" points="289.4,159 294.4,155.1 297.2,152.2 303.5,160.6 296.6,168.4" fill="none"/></g><g id="code-s-g103"><g id="code-s-g104"><path id="code-s-path115" d="M304,51.5c-1.7.1-5.1.3-5.1.3s1.1-.1,1.6-.2s1-.3,1.6-.5c.5-.2,1-.5,1.5-.8s.9-.6,1.4-1c1.7.1,2.6.1,4.3.2-.4.3-.8.6-1.2.8s-.8.5-1.3.6c-.4.2-.9.3-1.3.4-.6.1-1.1.2-1.5.2Z"/></g><g id="code-s-g105"><path id="code-s-path116" d="M301.5,33.8c1.6,1,4.9,2.8,4.9,2.8s-.2-.1-.3-.2c-.1,0-.2-.1-.3-.1s-.2-.1-.4-.1c-.1,0-.2-.1-.4-.1-.6-.1-1.2,0-1.8.1-.6.2-1.1.5-1.5.9s-.8.9-1.1,1.5-.5,1.2-.6,2c-.1.7-.1,1.4,0,2s.3,1.2.6,1.7.7.9,1.1,1.2c.5.3,1,.5,1.6.6-2.1-.3-3.2-.5-5.3-.8-.7-.1-1.3-.3-1.9-.7-.5-.4-1-.8-1.3-1.4-.4-.6-.6-1.3-.7-2-.1-.8-.2-1.6,0-2.5.1-.9.4-1.7.7-2.4s.8-1.3,1.3-1.8s1.1-.9,1.8-1.1s1.4-.3,2.1-.2c.2,0,.3,0,.4.1.1,0,.3.1.4.1s.3.1.4.2c0,.1.1.1.3.2Z"/></g><g id="code-s-g106"><path id="code-s-path117" d="M301.7,44.2c1.9.4,2.9.6,4.8,1c1.1,1.7,1.6,2.6,2.7,4.2-1.7-.1-2.6-.1-4.3-.2-1.3-1.9-2-3-3.2-5Z"/></g><g id="code-s-g107"><path id="code-s-path118" d="M308.2,31.1c1.6,1.4,2.3,2,3.9,3.4-1.7,1.4-2.6,2.1-4.3,3.6-1.9-1-2.8-1.5-4.7-2.5c2-1.9,3.1-2.8,5.1-4.5Z"/></g><g id="code-s-g108"><path id="code-s-path119" d="M306,28.3c1.7,1.6,2.5,2.3,4.3,3.9.2.2.4.3.5.5.2.2.3.4.5.6s.3.4.4.6.3.4.4.6c-1.6-1.3-2.4-2-3.9-3.4-.1-.3-.3-.5-.5-.8s-.3-.5-.5-.7-.4-.5-.6-.7-.4-.4-.6-.6Z"/></g><g id="code-s-g109"><path id="code-s-path120" d="M301.2,25.9c.8.1,1.5.3,2.2.6s1.3.7,1.9,1.1s1.1,1,1.6,1.5c.5.6.9,1.2,1.3,1.9-2,1.7-3.1,2.6-5.1,4.4-.2-.3-.4-.6-.6-.8-.2-.3-.5-.5-.8-.7s-.6-.4-.9-.5-.7-.2-1-.3c-.7-.1-1.4,0-2.1.2-.6.2-1.2.6-1.8,1.1-.5.5-1,1.1-1.3,1.8s-.6,1.5-.7,2.4-.1,1.7,0,2.5.4,1.4.7,2c.4.6.8,1.1,1.3,1.4.5.4,1.2.6,1.9.7.3,0,.7.1,1,0c.3,0,.7-.1,1-.2s.6-.2.9-.4.6-.4.8-.6c1.3,2.1,1.9,3.1,3.2,5.1-.6.5-1.2.9-1.8,1.2-.6.4-1.3.6-1.9.9-.7.2-1.3.4-2,.4-.7.1-1.4.1-2.1,0-1.4-.2-2.6-.7-3.7-1.5s-2.1-1.8-2.8-3c-.8-1.2-1.3-2.6-1.7-4.2-.3-1.6-.4-3.3-.2-5c.2-1.8.7-3.5,1.4-5s1.7-2.9,2.8-4s2.4-2,3.8-2.5c1.6-.5,3.1-.7,4.7-.5Z"/></g><g id="code-s-g110"><path id="code-s-path121" d="M302.2,33.2c-1.9-1-4.2-1-5.8.2-1.7,1.2-2.4,3.2-2.7,5.2-.2,2,0,4.2,1.2,5.8.6.7,1.5,1.3,2.5,1.7.9.4,2.1.4,3-.1-.9.7-2.1.8-3.2.5s-2.1-.8-2.9-1.7-1.2-2-1.5-3.1c-.2-1.1-.2-2.2-.1-3.3.2-1.1.4-2.2,1-3.2.5-1,1.3-1.9,2.3-2.5s2.1-.9,3.3-.8c1,.2,2.1.7,2.9,1.3Z" fill="#fff"/></g><path id="code-s-path122" d="M303.5,36l-.6-.3c0,0-2.3-3-4.7-2s-3.5,3.9-3.6,5.8c-.2,2,.9,5,4.1,5.3c0,0,.8,0,1.4-.3c0,0-1-1.4-.8-4.3.2-2.8,2.5-3.8,2.5-3.8s1-.5,1.7-.4Z" fill="none"/><g id="code-s-g111"><path id="code-s-path123" d="M302.8,34.3c1.3-1.2,2.6-2.5,3.9-3.7v.3c-1.4-1.4-3-2.6-4.8-3.3-.9-.3-1.8-.5-2.8-.4-.9.1-1.8.4-2.7.8-3.4,1.7-5.6,5.4-6.1,9.2-.3,1.9-.3,3.9.1,5.7.4,1.9,1.1,3.7,2.4,5.1c1.3,1.3,3.1,2.3,5,2.5c1.9.1,3.8-.6,5.5-1.6l-.1.2c-.7-1.3-1.4-2.6-2.1-4c.8,1.3,1.6,2.5,2.4,3.8l.1.1-.1.1c-1.6,1.1-3.6,2-5.7,1.9-1,0-2.1-.3-3-.8-.9-.4-1.8-1-2.6-1.7-1.5-1.5-2.3-3.5-2.7-5.5s-.4-4-.2-6.1c.6-4,3-7.9,6.7-9.8.9-.4,1.9-.8,3-.8c1.1-.1,2.1.2,3,.6c1.9.8,3.5,2.1,4.8,3.6l.1.1-.1.1c-1.2,1.3-2.6,2.4-4,3.6Z" fill="#fff"/></g><polygon id="code-s-polygon33" points="308,31.7 311.2,34.5 307.9,37.3 303.9,35.3" fill="none"/><polygon id="code-s-polygon34" points="302.3,44.7 306.2,45.5 308.4,49 304.9,48.7" fill="none"/></g><g id="code-s-g112"><g id="code-s-g113"><path id="code-s-path124" d="M310.7,137.4c-1.3.8-3.9,2.4-3.9,2.4s.8-.5,1.2-.9c.4-.3.7-.7,1-1.1s.6-.8.8-1.2c.3-.4.5-.9.7-1.4c1.4-.7,2.1-1,3.5-1.7-.2.4-.4.8-.6,1.2s-.5.7-.7,1.1c-.3.3-.6.6-.9.9-.4.2-.7.5-1.1.7Z"/></g><g id="code-s-g114"><path id="code-s-path125" d="M301.2,124.4c1.7.1,5.1.1,5.1.1s-.2,0-.3,0-.2,0-.3,0-.2,0-.3.1c-.1,0-.2.1-.3.1-.5.2-1,.5-1.3.9-.4.4-.6.8-.8,1.3s-.3,1.1-.3,1.7.1,1.2.3,1.8.5,1.2.9,1.6.8.8,1.2,1.1.9.4,1.4.5c.5,0,1,0,1.5-.2-1.8.7-2.7,1-4.5,1.6-.6.2-1.2.3-1.8.2s-1.1-.2-1.7-.6c-.5-.3-1-.7-1.4-1.3-.4-.5-.8-1.2-1.1-1.9s-.4-1.5-.5-2.2c0-.7.1-1.4.3-2s.5-1.2.9-1.6c.4-.5.9-.8,1.6-1c.1,0,.3-.1.4-.1s.3-.1.4-.1.3,0,.4,0c-.1,0,0,0,.2,0Z"/></g><g id="code-s-g115"><path id="code-s-path126" d="M305.8,132.6c1.7-.5,2.5-.8,4.2-1.3c1.6.9,2.4,1.3,4,2.2-1.4.7-2.1,1-3.5,1.7-1.9-1-2.8-1.6-4.7-2.6Z"/></g><g id="code-s-g116"><path id="code-s-path127" d="M305.3,119.4c1.8.4,2.7.6,4.5,1-.8,1.9-1.1,2.8-1.9,4.7-1.9,0-2.9,0-4.8,0c.9-2.3,1.4-3.4,2.2-5.7Z"/></g><g id="code-s-g117"><path id="code-s-path128" d="M302.4,118.1c2,.5,3,.8,5,1.2.2.1.4.1.6.2s.4.1.6.2.4.2.6.3.4.2.6.3c-1.8-.4-2.7-.6-4.5-1-.2-.1-.5-.3-.7-.4s-.5-.2-.7-.4c-.2-.1-.5-.2-.7-.3-.3.1-.5,0-.8-.1Z"/></g><g id="code-s-g118"><path id="code-s-path129" d="M297.6,118.3c.6-.2,1.3-.4,2-.5s1.3,0,2,.1s1.3.3,2,.5c.6.2,1.3.6,1.9,1-.9,2.2-1.3,3.4-2.1,5.7-.3-.2-.6-.3-.8-.4-.3-.1-.6-.2-.9-.2s-.6,0-.9,0-.6.1-.9.2c-.6.2-1.1.6-1.6,1-.4.5-.7,1-.9,1.6s-.3,1.3-.3,2s.2,1.4.5,2.2c.3.7.6,1.4,1.1,1.9.4.5.9,1,1.4,1.3s1.1.5,1.7.6s1.2,0,1.8-.2c.3-.1.6-.2.8-.4.3-.2.5-.4.7-.6s.4-.4.5-.7c.2-.3.3-.5.4-.8c1.9,1.1,2.8,1.6,4.7,2.6-.2.6-.5,1.2-.9,1.7-.3.5-.7,1-1.2,1.5-.4.4-.9.9-1.4,1.2s-1.1.6-1.7.8c-1.2.4-2.4.6-3.6.4-1.2-.1-2.4-.5-3.5-1.2-1.1-.6-2.2-1.5-3.1-2.6s-1.7-2.4-2.3-3.9-.9-3.1-1-4.6.1-3,.5-4.4s1.1-2.6,2-3.6c.7-.9,1.8-1.7,3.1-2.2Z"/></g><g id="code-s-g119"><path id="code-s-path130" d="M301.5,123.7c-1.9,0-3.8,1-4.5,2.7-.8,1.6-.6,3.5.1,5.2s1.8,3.3,3.4,4c.8.3,1.8.4,2.7.3s1.8-.5,2.4-1.3c-.4.9-1.3,1.5-2.3,1.8-1,.2-2,.3-3-.1-2-.7-3.3-2.6-4-4.4-.4-.9-.6-1.9-.6-3c0-1,.2-2.1.8-3c.5-.9,1.3-1.6,2.3-2c.7-.3,1.8-.4,2.7-.2Z" fill="#fff"/></g><path id="code-s-path131" d="M303.7,125.3h-.6c0,0-3.1-1.4-4.6.4s-1.1,4.5-.4,6.2c.7,1.6,2.9,3.5,5.5,2.5c0,0,.7-.4,1-.9c0,0-1.4-.7-2.4-3s.3-4.1.3-4.1.6-.8,1.2-1.1Z" fill="none"/><g id="code-s-g120"><path id="code-s-path132" d="M302.5,124.2c.5-1.5,1-3.1,1.5-4.6l.1.2c-1.7-.5-3.4-.8-5.1-.5-.8.1-1.7.4-2.3.8-.7.4-1.2,1.1-1.7,1.8-1.9,2.8-2.1,6.6-.9,9.8.6,1.6,1.4,3.2,2.5,4.5s2.5,2.4,4.1,3c1.6.5,3.4.5,5-.2s2.7-2.1,3.7-3.6l.1.2c-1.1-.7-2.2-1.5-3.3-2.3c1.2.7,2.3,1.3,3.5,2l.1.1-.1.1c-.8,1.6-2,3.1-3.7,4-.8.4-1.8.6-2.7.7s-1.9,0-2.8-.3c-1.8-.6-3.3-1.8-4.5-3.2s-2.1-3-2.8-4.7c-1.2-3.5-1-7.6,1.2-10.6.5-.8,1.2-1.4,2-1.9s1.8-.8,2.7-.8c1.8-.2,3.7.2,5.4.8l.2.1-.1.2c-.9,1.4-1.5,2.9-2.1,4.4Z" fill="#fff"/></g><polygon id="code-s-polygon35" points="305.4,120 309.2,120.8 307.7,124.5 303.7,124.6" fill="none"/><polygon id="code-s-polygon36" points="306.5,132.7 309.9,131.6 313.2,133.5 310.3,134.8" fill="none"/></g><g id="code-s-g121"><g id="code-s-g122"><path id="code-s-path133" d="M303.6,75.6c3.2-3.7,4.8-5.6,8.1-9.2c2,1.2,3,1.7,5,2.9-3,3.8-4.5,5.7-7.5,9.6-2.3-1.4-3.4-2-5.6-3.3Z"/></g><g id="code-s-g123"><path id="code-s-path134" d="M309.2,78.8c2.9-3.9,4.4-5.8,7.5-9.6-.4,1.3-.7,2-1.1,3.3-3,3.9-4.5,5.9-7.4,9.9.4-1.4.6-2.1,1-3.6Z"/></g><g id="code-s-g124"><path id="code-s-path135" d="M306.5,64.7c3.3-3.3,4.9-4.9,8.3-8.1-1.3,3.9-2,5.9-3.2,9.8-3.3,3.6-4.9,5.4-8.1,9.2c1.2-4.4,1.8-6.6,3-10.9Z"/></g><g id="code-s-g125"><path id="code-s-path136" d="M302.4,62.2c3.5-3.2,5.2-4.8,8.7-7.8c1.5.9,2.2,1.3,3.7,2.2-3.3,3.2-5,4.8-8.3,8.1-1.6-1-2.4-1.5-4.1-2.5Z"/></g><g id="code-s-g126"><path id="code-s-path137" d="M306.5,64.7c-1.3,4.3-1.9,6.5-3,10.9c2.2,1.3,3.4,2,5.6,3.3-.4,1.4-.6,2.2-1,3.6-3.8-2.2-5.7-3.3-9.5-5.5c1.4-5.9,2.1-8.8,3.7-14.7c1.8.9,2.6,1.4,4.2,2.4Z"/></g><g id="code-s-g127"><path id="code-s-path138" d="M305.1,65.3c-.9-.3-1.7-.6-2.5-1l.3-.1c-.8,4.3-1.9,8.5-3,12.7l-.2-.5c2.5,1.6,4.9,3.4,7.3,5.2-2.6-1.4-5.2-2.9-7.8-4.4l-.3-.2.1-.3c1-4.2,2.1-8.4,3.5-12.6l.1-.3.2.1c.8.4,1.5.9,2.3,1.4Z" fill="#fff"/></g><g id="code-s-g128"><path id="code-s-path139" d="M304.9,66.4c-.4,1.7-.8,3.3-1.2,5-.5,1.7-.9,3.3-1.4,5l-.1-.3c.8.5,1.7,1,2.5,1.6.8.5,1.7,1.1,2.5,1.6v0v0l-.1,1.2v-1.2.1c-.9-.5-1.7-.9-2.6-1.4s-1.7-1-2.6-1.5l-.2-.1v-.2c.4-1.7,1-3.3,1.4-5c.7-1.5,1.2-3.2,1.8-4.8Z" fill="#fff"/></g><g id="code-s-g129"><path id="code-s-path140" d="M313.1,57.2c-.7-.4-1.4-.7-2-1.1h.2c-1.2,1.1-2.5,2.2-3.8,3.3-1.3,1-2.6,2.1-4,3c1.2-1.2,2.4-2.3,3.7-3.4s2.5-2.1,3.9-3.1l.1-.1.1.1c.6.3,1.2.8,1.8,1.3Z" fill="#fff"/></g><g id="code-s-g130"><path id="code-s-path141" d="M312.3,57.7c-1,1.1-2,2.2-3,3.2s-2.1,2-3.2,3l-.1.1-.1-.1c-.5-.4-1-.8-1.5-1.2.6.3,1.2.6,1.7.9h-.2c1-1.1,2.1-2.1,3.1-3.1s2.1-1.9,3.3-2.8Z" fill="#fff"/></g><g id="code-s-g131"><path id="code-s-path142" d="M311.2,68.3c1.1.4,2.2,1,3.3,1.5l.4.2-.3.4c-.9,1.2-1.9,2.4-3,3.6-1.1,1.1-2.1,2.3-3.4,3.3.8-1.4,1.7-2.6,2.7-3.9c1-1.2,2-2.4,3.1-3.5l.1.6c-1-.7-2-1.4-2.9-2.2Z" fill="#fff"/></g><g id="code-s-g132"><path id="code-s-path143" d="M310.5,69.2c-.8,1.2-1.7,2.3-2.6,3.4s-1.8,2.2-2.8,3.2v-.3c.8.6,1.5,1.2,2.3,1.8-.8-.5-1.7-1-2.5-1.6l-.1-.1.1-.2c.9-1.1,1.8-2.2,2.7-3.3.9-.9,1.9-1.9,2.9-2.9Z" fill="#fff"/></g><polygon id="code-s-polygon37" points="313.5,58.3 310.7,66.9 303.5,74.9 306.2,65.5" fill="none"/><polygon id="code-s-polygon38" points="315.5,71.1 315,72.9 308,82 308.8,79.4" fill="none"/></g><g id="code-s-g133"><g id="code-s-g134"><g id="code-s-g135"><polygon id="code-s-polygon39" points="304.5,93.8 301.8,95.4 304.4,95.7 307.2,94.2"/></g><g id="code-s-g136"><polygon id="code-s-polygon40" points="307.2,94.2 304.4,95.7 304.5,113.8 307.2,112.3"/></g><g id="code-s-g137"><polygon id="code-s-polygon41" points="301.8,113.4 304.5,113.8 304.4,95.7 301.8,95.4"/></g></g><g id="code-s-g138"><g id="code-s-g139"><g id="code-s-g140" clip-path="url(#code-u-svgid_28_)"><g id="code-s-g141"><path id="code-s-path144" d="M305,85.8l-2.8,1.5c0,0,0,0,.1,0l2.7-1.5c0,0,0,0,0,0"/><path id="code-s-path145" d="M305,85.8l-2.8,1.5c.1,0,.2-.1.3-.1l2.8-1.5c-.1,0-.2.1-.3.1"/><path id="code-s-path146" d="M305.3,85.7l-2.8,1.5c.2,0,.4-.1.6,0c.2,0,.4.1.6.2l2.8-1.5c-.2-.1-.4-.1-.6-.2-.2,0-.4,0-.6,0"/><path id="code-s-path147" d="M306.4,85.9l-2.8,1.5c.1,0,.2.1.3.2l2.8-1.5c-.1-.1-.2-.2-.3-.2"/><path id="code-s-path148" d="M306.7,86l-2.8,1.5c.1,0,.1.1.2.2l2.8-1.5c0-.1-.1-.1-.2-.2"/><path id="code-s-path149" d="M306.9,86.2l-2.8,1.5c.1.1.1.1.2.2l2.8-1.5c-.1-.1-.1-.2-.2-.2"/><path id="code-s-path150" d="M307.1,86.4l-2.8,1.5c0,0,0,0,0,0c0,.1.1.1.1.2l2.8-1.5c0-.1,0-.1-.1-.2c0,0,0,0,0,0"/><path id="code-s-path151" d="M307.3,86.6l-2.8,1.5c.1.1.1.1.1.2l2.8-1.5c0-.1-.1-.2-.1-.2"/><path id="code-s-path152" d="M307.4,86.8l-2.8,1.5c0,.1.1.2.1.3l2.8-1.5c0-.1,0-.2-.1-.3"/><path id="code-s-path153" d="M307.5,87.1l-2.8,1.5c.1.2.1.5.1.8c0,.5-.2.9-.5,1.3-.1.1-.2.2-.3.2l2.8-1.5c.1-.1.2-.1.3-.2.3-.3.5-.7.5-1.3.1-.3,0-.6-.1-.8"/></g><clipPath id="code-u-svgid_28_"><use id="code-s-use4" width="5.399994" height="5.099998" xlink:href="#code-u-svgid_27_"/></clipPath></g></g><g id="code-s-g142"><path id="code-s-path154" d="M303.1,91c.5.1.9-.1,1.2-.4s.5-.7.5-1.3c0-.5-.2-1-.5-1.4s-.8-.6-1.2-.7c-.5-.1-.9.1-1.2.4s-.5.7-.5,1.3c0,.5.2,1,.5,1.4s.8.6,1.2.7Z"/></g><g id="code-s-g143"><g id="code-s-g144"><path id="code-s-path155" d="M302.9,90.7c.4.1.7-.1,1-.4.2-.3.3-.6.3-1-.1-.7-.6-1.3-1.3-1.4-.7-.2-1.3.5-1.2,1.2c0,.7.5,1.5,1.2,1.6Zm0,0c-.7-.1-1.3-.8-1.4-1.6c0-.4,0-.8.3-1.1s.7-.5,1.1-.4c.8.1,1.4.9,1.3,1.7.2.8-.5,1.5-1.3,1.4Z" fill="#fff"/></g></g><g id="code-s-g145"><path id="code-s-path156" d="M303.9,87.5c.4-.3.7-.5,1.1-.8s.8-.5,1.2-.7v0c-.3.4-.7.6-1.1.8-.3.3-.7.5-1.2.7v0Z" fill="#fff"/></g><g id="code-s-g146"><path id="code-s-path157" d="M304.9,89.8c.3-.3.7-.5,1-.7.4-.2.7-.4,1.2-.5-.3.3-.7.5-1,.7-.4.2-.8.4-1.2.5Z" fill="#fff"/></g></g><g id="code-s-g147"><path id="code-s-path158" d="M304.4,94.2c-.3.2-.6.4-.9.6s-.6.4-.9.5v-.1c.5.1,1.1.1,1.6.3-.6,0-1.1-.1-1.7-.1h-.2l.2-.1c.3-.2.6-.3.9-.5.4-.3.7-.4,1-.6Z" fill="#fff"/></g><g id="code-s-g148"><path id="code-s-path159" d="M304.5,95.5c.3-.2.6-.4.9-.6s.6-.4,1-.6v.1c-.6-.1-1.2-.2-1.8-.4.6.1,1.2.2,1.8.3h.2l-.2.1c-.3.2-.7.4-1,.5-.2.3-.6.5-.9.6Z" fill="#fff"/></g><g id="code-s-g149"><path id="code-s-path160" d="M304.2,95.7l-2.2-.2.1-.1v4.4c0,1.5,0,2.9,0,4.4c0,2.9,0,5.9-.1,8.8-.1-2.9-.1-5.9-.1-8.8c0-1.5,0-2.9,0-4.4v-4.4-.1h.1l2.2.4Z" fill="#fff"/></g><g id="code-s-g150"><path id="code-s-path161" d="M302,113.1l2.2.2-.1.1v-4.4c0-1.5,0-2.9,0-4.4c0-2.9,0-5.9.1-8.8.1,2.9.1,5.9.1,8.8c0,1.5,0,2.9,0,4.4v4.4.1h-.1l-2.2-.4Z" fill="#fff"/></g><polygon id="code-s-polygon42" points="304.5,95.8 307,94.4 307.1,112.1 304.6,113.4" fill="none"/></g></g></g></g></svg>
