<svg cache-id="15cb99779d9b42c9a76c55ceaedb3519" id="eXMl6L1UJmu1" xmlns="http://www.w3.org/2000/svg" xmlns:xlink="http://www.w3.org/1999/xlink" viewBox="0 0 1024 571.95" shape-rendering="geometricPrecision" text-rendering="geometricPrecision">
<style><![CDATA[
#eXMl6L1UJmu11 {animation: eXMl6L1UJmu11_c_o 4200ms linear infinite normal forwards}@keyframes eXMl6L1UJmu11_c_o { 0% {opacity: 0} 4.761905% {opacity: 1} 9.52381% {opacity: 0} 14.285714% {opacity: 1} 19.047619% {opacity: 0} 23.809524% {opacity: 1} 28.571429% {opacity: 0} 33.333333% {opacity: 1} 38.095238% {opacity: 0} 42.857143% {opacity: 1} 47.619048% {opacity: 0} 52.380952% {opacity: 1} 57.142857% {opacity: 0} 61.904762% {opacity: 1} 66.666667% {opacity: 0} 71.428571% {opacity: 1} 76.190476% {opacity: 0} 80.952381% {opacity: 1} 85.714286% {opacity: 1} 90.47619% {opacity: 1} 95.238095% {opacity: 1} 100% {opacity: 1}} #eXMl6L1UJmu21 {animation: eXMl6L1UJmu21_c_o 4200ms linear infinite normal forwards}@keyframes eXMl6L1UJmu21_c_o { 0% {opacity: 1} 4.761905% {opacity: 0} 9.52381% {opacity: 1} 14.285714% {opacity: 0} 19.047619% {opacity: 1} 23.809524% {opacity: 0} 28.571429% {opacity: 1} 33.333333% {opacity: 0} 38.095238% {opacity: 1} 42.857143% {opacity: 0} 47.619048% {opacity: 1} 52.380952% {opacity: 0} 57.142857% {opacity: 1} 61.904762% {opacity: 0} 66.666667% {opacity: 1} 71.428571% {opacity: 0} 76.190476% {opacity: 1} 80.952381% {opacity: 1} 85.714286% {opacity: 1} 90.47619% {opacity: 1} 95.238095% {opacity: 1} 100% {opacity: 1}} #eXMl6L1UJmu31 {animation: eXMl6L1UJmu31_c_o 4200ms linear infinite normal forwards}@keyframes eXMl6L1UJmu31_c_o { 0% {opacity: 0} 4.761905% {opacity: 1} 9.52381% {opacity: 0} 14.285714% {opacity: 1} 19.047619% {opacity: 0} 23.809524% {opacity: 1} 28.571429% {opacity: 0} 33.333333% {opacity: 1} 38.095238% {opacity: 0} 42.857143% {opacity: 1} 47.619048% {opacity: 0} 52.380952% {opacity: 1} 57.142857% {opacity: 0} 61.904762% {opacity: 1} 66.666667% {opacity: 0} 71.428571% {opacity: 1} 76.190476% {opacity: 0} 80.952381% {opacity: 1} 85.714286% {opacity: 0} 90.47619% {opacity: 1} 95.238095% {opacity: 0} 100% {opacity: 1}} #eXMl6L1UJmu41 {animation: eXMl6L1UJmu41_c_o 4200ms linear infinite normal forwards}@keyframes eXMl6L1UJmu41_c_o { 0% {opacity: 1} 4.761905% {opacity: 0} 9.52381% {opacity: 1} 14.285714% {opacity: 0} 19.047619% {opacity: 1} 23.809524% {opacity: 0} 28.571429% {opacity: 1} 33.333333% {opacity: 0} 38.095238% {opacity: 1} 42.857143% {opacity: 0} 47.619048% {opacity: 1} 52.380952% {opacity: 0} 57.142857% {opacity: 1} 61.904762% {opacity: 0} 66.666667% {opacity: 1} 71.428571% {opacity: 0} 76.190476% {opacity: 1} 80.952381% {opacity: 0} 85.714286% {opacity: 1} 90.47619% {opacity: 0} 95.238095% {opacity: 1} 100% {opacity: 0}} #eXMl6L1UJmu66_to {animation: eXMl6L1UJmu66_to__to 4200ms linear infinite normal forwards}@keyframes eXMl6L1UJmu66_to__to { 0% {transform: translate(766.420044px,342.733612px)} 11.904762% {transform: translate(762px,342.733612px)} 23.809524% {transform: translate(762px,342.733612px)} 35.714286% {transform: translate(771px,342.733612px)} 47.619048% {transform: translate(771px,342.733612px)} 59.52381% {transform: translate(765px,342.733612px)} 71.428571% {transform: translate(762px,342.733612px);animation-timing-function: cubic-bezier(0.25,1,0.25,1)} 83.333333% {transform: translate(762px,342.733612px)} 100% {transform: translate(766.42px,342.733612px)}} #eXMl6L1UJmu66_tk {animation: eXMl6L1UJmu66_tk__tk 4200ms linear infinite normal forwards}@keyframes eXMl6L1UJmu66_tk__tk { 0% {transform: skewX(0deg) skewY(0deg)} 11.904762% {transform: skewX(10deg) skewY(0deg)} 23.809524% {transform: skewX(0deg) skewY(0deg)} 35.714286% {transform: skewX(-8deg) skewY(0deg)} 47.619048% {transform: skewX(0deg) skewY(0deg)} 59.52381% {transform: skewX(6deg) skewY(0deg)} 71.428571% {transform: skewX(10deg) skewY(0deg);animation-timing-function: cubic-bezier(0.25,1,0.25,1)} 83.333333% {transform: skewX(0deg) skewY(0deg)} 100% {transform: skewX(0deg) skewY(0deg)}} #eXMl6L1UJmu77_to {animation: eXMl6L1UJmu77_to__to 4200ms linear infinite normal forwards}@keyframes eXMl6L1UJmu77_to__to { 0% {offset-distance: 0%} 40.47619% {offset-distance: 50.000148%} 92.857143% {offset-distance: 100%} 100% {offset-distance: 100%}} #eXMl6L1UJmu77_tr {animation: eXMl6L1UJmu77_tr__tr 4200ms linear infinite normal forwards}@keyframes eXMl6L1UJmu77_tr__tr { 0% {transform: rotate(-180deg)} 90.47619% {transform: rotate(1080deg);animation-timing-function: cubic-bezier(0.47,0,0.745,0.715)} 92.857143% {transform: rotate(0deg)} 100% {transform: rotate(0deg)}} #eXMl6L1UJmu77 {animation: eXMl6L1UJmu77_c_o 4200ms linear infinite normal forwards}@keyframes eXMl6L1UJmu77_c_o { 0% {opacity: 1} 30.952381% {opacity: 1} 40.47619% {opacity: 0} 92.857143% {opacity: 0;animation-timing-function: cubic-bezier(0.47,0,0.745,0.715)} 100% {opacity: 1}}
]]></style>
<g style="isolation:isolate"><g><g><g><polygon points="1028,272.95 4,259.13 207.84,555.65 999.76,566.95 950.01,489.38 990.76,526.21 1028,272.95" transform="translate(-4-2)" stroke-width="0"/><polygon points="1021.2,272.43 30.58,274.4 204.97,551.21 976.21,553.84 933.47,471.27 976.21,502.1 1021.2,272.43" transform="translate(.086755 0.286045)" fill="#fff" stroke-width="0"/></g><path d="M869,553.84c0,0,14.21-40.16,15.18-55.67c0,0,32.02,5.21,39.65-22.94s34.01-91.02,34.99-101.33s18.59-72.4,5.57-101.48h56.8L976.2,502.08l-42.74-30.83l42.74,82.57h-107.21l.01.02Z" fill="#e02c24" stroke-width="0"/><path d="M252.86,274.5l-222.28-.63L204.97,551.68l119.89,1.11c0,0-13.79-14.85-15.32-61.57s-20.68-94.21-20.68-94.21-25.28-30.89-24.51-51.82s6.13-22.4-2.3-34.3-9.19-36.39-9.19-36.39Z" fill="#e02c24" stroke-width="0"/><g><g id="eXMl6L1UJmu11" transform="matrix(.966431 0 0 1 18.029022 10)" opacity="0"><polygon points="973.54,287.7 1013.84,287.39 973.68,290.7 973.54,287.7 973.54,287.7" transform="translate(-5.173675 0)" stroke-width="0"/><polygon points="972.67,323 1008.32,320.29 973.02,325.98 972.67,323 972.67,323" transform="translate(-6.20841 0)" stroke-width="0"/><polygon points="969.65,355.29 1002.16,353.89 969.91,358.28 969.65,355.29 969.65,355.29" transform="translate(-9.312615 0)" stroke-width="0"/><polygon points="959.25,387.15 991.18,386.3 959.47,390.14 959.25,387.15 959.25,387.15" transform="translate(-6.20841 0)" stroke-width="0"/><polygon points="948.88,412.91 986.09,414.76 948.85,415.91 948.88,412.91 948.88,412.91" transform="translate(-5.173675-1)" stroke-width="0"/><polygon points="944.48,436.28 976.73,442.89 944.02,439.25 944.48,436.28 944.48,436.28" transform="translate(-8.27788-1)" stroke-width="0"/><polygon points="971.56,473.97 934.93,462.73 935.92,459.9 971.56,473.97 971.56,473.97" transform="translate(-8.27788-2)" stroke-width="0"/><polygon points="945.769514,500.06 917.076312,486.97 924.02,486.17 945.769514,500.06 945.769514,500.06" transform="translate(-25.868375-15)" stroke-width="0"/><polygon points="952.48,537.69 894.41,504.98 895.95,502.4 952.48,537.69 952.48,537.69" transform="translate(-9.312615-13)" stroke-width="0"/></g><g id="eXMl6L1UJmu21" transform="matrix(.966431 0 0 1 22.029022-2)"><polygon points="973.54,287.7 1013.84,287.39 973.68,290.7 973.54,287.7 973.54,287.7" transform="translate(-5.173675 0)" stroke-width="0"/><polygon points="972.67,323 1008.32,320.29 973.02,325.98 972.67,323 972.67,323" transform="translate(-6.20841 0)" stroke-width="0"/><polygon points="969.65,355.29 1002.16,353.89 969.91,358.28 969.65,355.29 969.65,355.29" transform="translate(-9.312615 0)" stroke-width="0"/><polygon points="959.25,387.15 991.18,386.3 959.47,390.14 959.25,387.15 959.25,387.15" transform="translate(-6.20841 0)" stroke-width="0"/><polygon points="948.88,412.91 986.09,414.76 948.85,415.91 948.88,412.91 948.88,412.91" transform="translate(-5.173675-1)" stroke-width="0"/><polygon points="944.48,436.28 976.73,442.89 944.02,439.25 944.48,436.28 944.48,436.28" transform="translate(-8.27788-1)" stroke-width="0"/><polygon points="971.56,473.97 934.93,462.73 935.92,459.9 971.56,473.97 971.56,473.97" transform="translate(-8.27788-2)" stroke-width="0"/><polygon points="945.169368,496.22 922.31,488.63 924.02,486.17 945.169368,496.22 945.169368,496.22" transform="translate(-8.27788-3)" stroke-width="0"/><polygon points="952.48,537.69 894.41,504.98 895.95,502.4 952.48,537.69 952.48,537.69" transform="translate(-9.312615-13)" stroke-width="0"/></g><g id="eXMl6L1UJmu31" transform="translate(13-12)" opacity="0"><polygon points="249.74,291.48 49.57,282.17 249.85,288.48 249.74,291.48 249.74,291.48" stroke-width="0"/><polygon points="256.51,323.77 69.08,316.07 256.61,320.77 256.51,323.77 256.51,323.77" transform="translate(2 0)" stroke-width="0"/><polygon points="257.58,359.07 91.25,352.67 257.67,356.07 257.58,359.07 257.58,359.07" transform="translate(1 0)" stroke-width="0"/><polygon points="275.02,390.93 114.23,386.08 275.08,387.93 275.02,390.93 275.02,390.93" transform="translate(-1 0)" stroke-width="0"/><polygon points="287.54,416.69 130.31,415.54 287.54,413.69 287.54,416.69 287.54,416.69" stroke-width="0"/><polygon points="297.22,439.04 153.68,443.67 297.09,436.05 297.22,439.04 297.22,439.04" stroke-width="0"/><polygon points="167.84,474.75 301.85,461.6 302.11,464.59 167.84,474.75 167.84,474.75" stroke-width="0"/><polygon points="188.14,504.18 305.09,490.68 305.39,493.67 188.14,504.18 188.14,504.18" stroke-width="0"/><polygon points="205.93,532.47 306.06,519.98 306.39,522.96 205.93,532.47 205.93,532.47" stroke-width="0"/></g><g id="eXMl6L1UJmu41" transform="matrix(1.143836 0 0 1-25.579935 1.41362)"><polygon points="205.93,532.47 306.06,519.98 306.39,522.96 205.93,532.47 205.93,532.47" transform="translate(-2.622753 0)" stroke-width="0"/><polygon points="249.74,291.48 49.57,282.17 249.85,288.48 249.74,291.48 249.74,291.48" transform="translate(1.748502 0)" stroke-width="0"/><polygon points="256.51,323.77 69.08,316.07 256.61,320.77 256.51,323.77 256.51,323.77" transform="translate(6.994008 0)" stroke-width="0"/><polygon points="257.58,359.07 91.25,352.67 257.67,356.07 257.58,359.07 257.58,359.07" transform="translate(4.371255 0)" stroke-width="0"/><polygon points="275.02,390.93 114.23,386.08 275.08,387.93 275.02,390.93 275.02,390.93" transform="translate(3.497004 0)" stroke-width="0"/><polygon points="287.54,416.69 130.31,415.54 287.54,413.69 287.54,416.69 287.54,416.69" transform="translate(1.748502 0)" stroke-width="0"/><polygon points="297.22,439.04 153.68,443.67 297.09,436.05 297.22,439.04 297.22,439.04" stroke-width="0"/><polygon points="167.84,474.75 301.85,461.6 302.11,464.59 167.84,474.75 167.84,474.75" stroke-width="0"/><polygon points="188.14,504.18 305.09,490.68 305.39,493.67 188.14,504.18 188.14,504.18" transform="translate(-2.622753 0)" stroke-width="0"/></g><path d="M257.72,271.32c.05.85,0,.29.07,1.14.73,5.11,1.46,10.22,2.92,15.33c2.92,9.49,7.29,18.98,12.4,27.74c2.19,4.38,4.38,9.49,1.46,14.6-4.38,8.76-4.38,17.52-1.46,27.01c1.46,4.38,5.11,6.57,7.29,10.22c10.94,18.98,21.15,37.95,26.99,59.12c5.11,16.79,10.21,32.84,10.21,51.09c0,10.22-.73,20.44.73,30.66c1.46,13.87,5.11,27.01,8.75,39.41.43,1.56.9,3.13,1.4,4.69h4.73c-4.98-11.12-9.57-22.45-11.23-34.62-.73-5.84-1.46-11.68-.73-17.52.73-8.76-1.46-17.52-.73-26.28.73-18.25-5.84-35.03-9.48-51.82-.73-3.65,0-6.57,3.65-8.03s6.57-5.84,12.4-1.46c-2.92-4.38-.73-5.11,1.46-5.84c4.38-2.19,8.02-2.92,13.13-2.92c5.84,0,11.67-.73,16.78-2.92c4.38-2.19,5.84-.73,7.29,3.65c2.92,10.22,7.29,20.44,16.05,27.74-10.94-2.19-20.43-6.57-30.64-10.22c5.11,7.3,12.4,10.22,19.7,13.14c7.29,2.92,15.32,6.57,23.34,3.65v1.46c-3.65,1.46-6.57,2.19-10.21,3.65c1.46,2.92,3.65,2.19,5.84,2.19c13.13-2.92,26.26-7.3,39.39-9.49c3.65-.73,6.57-3.65,10.21-5.11c1.46-.73,2.19-2.19,1.46-3.65s-2.19-1.46-3.65-.73c-2.92,1.46-5.11,2.92-8.02,4.38-4.38,2.19-8.75,2.92-13.86,2.19.73-2.92,3.65-5.11,5.11-6.57c5.84-5.11,9.48-11.68,10.21-18.98c0-2.92,1.46-3.65,3.65-2.92c2.19,0,3.65,0,5.11-1.46c0-2.19-2.19-2.92-3.65-2.92-16.78-4.38-34.29-6.57-51.06-8.03-5.11-.73-10.21,2.19-14.59-1.46-3.65,2.92-7.29.73-10.94,1.46-7.29.73-15.32.73-22.61.73-4.38,0-8.75-.73-10.21,5.11c0,1.46-1.46,2.19-3.65,2.19-2.19-2.19-.73-4.38,1.46-5.84c5.84-5.11,12.4-7.3,19.7-7.3s13.86-2.92,21.15,0c9.48-4.38,18.97-1.46,28.45,0c12.4,2.19,26.26.73,37.93,5.84c2.92,1.46,3.65.73,7.29-2.19-4.38-5.84-16.05-8.76-56.9-13.14c18.97,0,38.66-3.65,57.63,1.46c4.38.73,5.84,0,10.94-4.38.73,5.11,3.65,4.38,6.57,2.92c4.38-2.19,8.02-5.11,12.4-8.03c5.84,10.22,2.92,23.36,11.67,31.38c2.19-1.46.73-2.92.73-4.38-2.19-7.3-4.38-14.6-6.57-21.9-2.19-8.03-1.46-16.79-7.29-24.82c5.11.73,8.75,1.46,13.13,2.19-2.19-3.65-5.11-4.38-8.02-5.11-7.29-.73-11.67-6.57-16.05-10.95-3.65-3.65-6.57-7.3-8.75-12.41-1.46-3.65-5.11-4.38-8.75-4.38c0,3.65,2.92,4.38,4.38,6.57c1.46,1.46,2.92,2.92,3.65,5.11c1.46,2.92,0,5.11-2.92,3.65-3.65-.73-7.29-3.65-10.21.73-.73,1.46-4.38-.73-6.57,0-.73,1.46,2.19,2.19.73,4.38-5.84-1.46-10.94-2.19-16.78-3.65-10.21-2.19-20.43-5.11-30.64-7.3-7.29-1.46-15.32-.73-22.61-2.92h-1.46c-6.57-2.19-13.13-3.65-21.15,0c0,0,2.92.73,1.46,2.19-6.57-.73-13.13-.73-19.7-1.46-5.11,0-9.48-.73-14.59-.73-6.57,0-10.21-2.92-11.67-8.76-.73-1.46-1.46-3.65-3.65-3.65s-1.46,2.19-2.92,2.92c-5.11-2.19-4.38-10.95-12.4-10.22-2.19-8.03-5.84-16.06-6.57-24.82-.34-4.04-.78-6.63-1.3-10.74l-6.79.1-.02.04ZM349.7,396.54c-4.38,2.92-8.02,3.65-13.13,0h13.13Zm-66.38-32.11c5.84,2.92,11.67,5.84,16.78,10.22c2.92,2.19,5.84,3.65,9.48,2.92c9.48,0,19.7-.73,29.18-.73c1.46,0,3.65,0,6.57.73-13.13,5.11-25.53,5.84-35.74,13.87c7.29,13.14,6.57,17.52-3.65,21.9-1.46-6.57-4.38-13.14-7.29-19.71v0c-2.92-8.76-10.21-14.6-13.86-22.63-.73-2.19-2.19-3.65-1.46-6.57h-.01Z" stroke-width="0"/><path d="M481.01,470.26c-4.38,2.92-5.11,8.03-5.84,12.41-4.09,23.9-12.66,46.52-20.31,69.65h9.36c3.63-14.36,6.52-29.15,11.69-43.38c2.19-7.3,4.38-16.06,4.38-24.09c0-2.92.73-5.84,1.46-8.76.73-2.19,2.19-3.65-.73-5.84l-.01.01Z" stroke-width="0"/><path d="M711.53,307.49c-5.11,0-10.21,2.19-15.32.73c19.7-1.46,38.66-5.11,58.36-5.84-.73-2.92-2.19-2.92-3.65-2.92h-13.13c-26.26,1.46-52.52,5.11-78.78,7.3-2.92,0-5.84.73-8.02,1.46-7.29,2.92-15.32,2.92-22.61,5.11-2.19.73-5.11.73-8.02.73-7.29-1.46-14.59,0-21.88,2.19-2.19.73-3.65,2.92-5.84,2.19-.73-2.92,2.19-5.11,0-7.3-5.11,0-3.65,5.84-6.57,7.3-1.46-.73-3.65-2.92-4.38,0-1.46-.73-1.46-3.65-4.38-3.65-2.19,2.92,0,7.3-1.46,10.95-2.19-1.46-3.65-4.38-6.57-2.92-2.19,1.46,0,3.65.73,5.11c0,.73,0,1.46-.73,1.46-2.19,1.46-.73,2.92,0,4.38c2.92,7.3,6.57,13.87,8.02,21.17c1.46,5.84,5.84,9.49,9.48,13.87c1.46-1.46-.73-2.19.73-2.92c5.84,7.3,14.59.73,21.88,3.65c4.38-3.65,9.48-2.92,13.86-4.38c8.75-2.92,16.78-5.11,25.53-7.3c13.86-3.65,27.72-6.57,42.31-8.03c33.56-5.11,67.11-6.57,101.4-7.3c6.57,0,13.13-.73,19.7.73c3.65.73,6.57.73,9.48-1.46c7.29-5.11,14.59-9.49,21.15-15.33c0-1.46,0-3.65-1.46-5.11-5.11,2.19-10.94.73-15.32-1.46-1.46-.73-2.92-.73-4.38-1.46-16.78-5.11-34.29-6.57-51.79-8.03-19.7-.73-38.66-2.19-58.36-2.92v0h.02Z" stroke-width="0"/><path d="M788.12,398.73c-.73-2.92-4.38-2.92-5.84-5.11c0-1.46,2.19-2.19,1.46-3.65-3.65-2.92-10.94-2.19-12.4-5.84-2.19-5.84-10.94-1.46-9.48-8.76-17.51-5.11-35.02-13.14-53.98-10.22c2.92-3.65,6.57-5.11,10.94-4.38c17.51,2.19,35.02,5.11,51.79,12.41c2.92,1.46,5.84,1.46,8.75,1.46c4.38.73,8.75-2.92,13.86-.73c0,0,0-.73.73-.73q-.73-.73-1.46-1.46c-13.86-3.65-27.72-6.57-41.58-11.68-8.02-2.92-16.05-5.84-24.07-8.03-2.92-.73-5.11-1.46-7.29,1.46-.73,2.19,2.19,2.19,1.46,3.65-31.37,2.19-62.01,2.92-91.91,15.33c1.46,2.92,3.65,2.92,6.57,2.19c3.65-1.46,7.29-2.92,10.94-4.38c6.57-2.92,13.13-3.65,20.43-2.92-3.65,4.38-8.02,6.57-12.4,8.76-6.57,2.92-12.4,6.57-16.78,12.41-.73,1.46-2.19,2.92,0,4.38c5.84-2.19,9.48-8.03,15.32-10.22s10.94-5.84,17.51-5.84c1.46,2.92,1.46,5.84,2.19,8.76c2.92,20.44,13.13,31.38,32.1,35.76c2.19.73,4.38.73,6.57,0c14.59-5.11,26.26-12.41,32.1-27.74c1.46-4.38,3.65-4.38,6.57-2.19c4.38,2.19,8.02,5.11,12.4,8.03c6.57,3.65,13.13,5.84,20.43,7.3-.73,2.19-2.92.73-2.92,2.19c2.92,3.65,15.32,5.11,20.43,2.19-5.84-4.38-12.4-5.11-18.24-8.03c2.19-2.92,4.38-2.19,5.84-4.38v0l-.04.01Zm-26.26-7.3c-8.02-4.38-15.32-10.22-24.07-14.6-1.46-.73-2.92-1.46-3.65-2.19c0,0,0-.73.73-.73c2.92.73,6.57,1.46,9.48,2.19s5.84.73,7.29,5.11c0,1.46,2.19,2.19,4.38,2.92c3.65.73,7.29,2.92,9.48,6.57c1.46,2.92,4.38,2.92,7.29,4.38-5.84,2.92-8.02-1.46-10.94-3.65h.01Z" stroke-width="0"/><path d="M659.01,471.72c-8.02-8.76-15.32-18.25-24.07-26.28-7.29-6.57-13.13-13.87-18.97-21.17-3.65-5.11-4.38-11.68-2.19-17.52.73-2.19.73-4.38,0-6.57-2.92,2.19-5.84,3.65-7.29,7.3-2.19,5.84,2.92,23.36,8.02,26.28c6.57,4.38,11.67,10.22,16.05,16.06c13.86,16.06,31.37,29.2,44.5,46.71c2.19,2.19,4.38,4.38,8.02,5.11-8.02-9.49-15.32-20.44-24.07-29.93v0v.01Z" stroke-width="0"/><path d="M731.22,426.47c-19.7,1.46-39.39,3.65-56.17-10.22-2.92-2.19-5.84-3.65-10.21-2.92-.73.73,0,1.46.73,2.19c5.84,4.38,11.67,9.49,17.51,12.41c4.38,2.19,8.75,4.38,13.13,4.38c6.57-.73,13.13-.73,19.7,0c13.86.73,26.26-2.92,39.39-7.3c5.11-2.19,10.21-5.84,14.59-10.22-4.38.73-9.48.73-13.13,2.92-8.75,5.11-16.78,8.03-25.53,8.76v0h-.01Z" stroke-width="0"/><path d="M689.64,450.55c4.38,2.19,8.75,4.38,13.13,6.57c0-.73.73-.73.73-1.46-18.97-12.41-37.2-24.82-54.71-40.14-.73,2.19-.73,3.65,0,4.38c3.65,3.65,5.11,8.76,10.21,10.95c2.92,1.46,5.84,2.92,8.02,5.11c10.94,10.22,22.61,19.71,33.56,30.66c1.46,1.46,2.92,3.65,5.11,3.65.73-1.46,1.46-2.92,2.19-4.38-6.57-4.38-13.13-9.49-18.24-15.33v0-.01Z" stroke-width="0"/><path d="M452.56,468.07c3.65-5.84,5.84-12.41,10.94-16.06c5.84-4.38,5.11-10.22,8.02-15.33.73-1.46,1.46-2.19,2.19-3.65c1.46-2.92,1.46-6.57-1.46-9.49-8.02,23.36-24.07,41.6-35.02,62.77c5.11-5.84,10.94-11.68,15.32-18.25v0l.01.01Z" stroke-width="0"/><path d="M386.18,479.75c4.38-2.92,7.29-5.84,10.94-8.03c15.32-10.95,32.1-20.44,47.42-32.11c1.46-1.46,3.65-2.19,2.92-6.57-21.15,16.06-42.31,29.93-65.65,41.6c1.46,2.19,3.65,2.19,4.38,5.11h-.01Z" stroke-width="0"/><path d="M551.04,340.34c2.92-10.95,8.75-20.44,13.13-29.93c1.46-2.92,2.92-5.11,7.29-2.92c0-4.38,2.19-8.03-2.19-10.95-9.48,8.03-23.34,41.6-21.15,48.17c1.46,0,2.19-2.19,2.92-4.38v.01Z" stroke-width="0"/><path d="M421.92,310.41c.73,4.38,5.11,6.57,6.57,10.95-8.02-.73-15.32-5.11-24.07-4.38c0,2.92,1.46,4.38,3.65,5.11c5.11.73,9.48,2.19,13.86,3.65c5.84,1.46,11.67,2.19,17.51,2.19-1.46-4.38-16.78-17.52-17.51-17.52v0h-.01Z" stroke-width="0"/><g><path d="M864.57,270.12c0,0,0,0,0,0s0,0,0,0Z" stroke-width="0"/><path d="M941.32,291.44c-.73-.73-1.46-1.46-2.92-1.46c1.46.73,2.19.73,2.92,1.46Z" stroke-width="0"/></g><path d="M842.5,270.12c4.31,6.14,8.53,12.89,12.01,19.86c1.46-2.92-1.46-5.11-1.46-8.03c2.92.73,4.38,2.19,5.11,5.11c6.57,16.06,11.67,32.12,11.67,49.63c0,11.68-.73,23.36-2.19,34.3-.73,10.95-2.19,22.63-3.65,33.57c0,1.46,0,2.19-1.46,3.65-1.46-.73,0-2.92-1.46-3.65h-.73c-2.92,35.03-17.51,66.42-32.1,98.53c1.46,0,1.46-1.46,2.19-2.19s1.46-1.46,2.92-2.19c-.73,2.19-1.46,4.38-2.19,5.84-5.11,8.03-6.57,16.79-10.94,25.55-3.57,7.15-7.45,17.691226-11.68,24.211226h10.37c1.8-3.43,3.45-8.981226,4.24-12.531226c1.46-7.3,7.29-12.41,9.48-19.71c2.92-8.76,4.38-18.98,8.75-27.01c2.19-5.11,2.92-10.22,7.29-14.6.32-.32.6-.69.86-1.06-6.51,22.39-18.27,51.661226-29.23,74.901226L863.69,554.3c.34-1.32.71-4.63,1.04-5.96c2.92-12.41,8.02-24.82,10.21-37.95c1.46-8.03,2.92-16.06,4.38-24.09.73-3.65,2.19-5.11,5.84-3.65s7.29.73,10.94,2.92c4.38,2.19,17.51-3.65,18.97-8.03c4.38-10.95,9.48-21.9,12.4-32.84c4.38-13.14,7.29-27.01,12.4-40.14c5.11-14.6,8.02-29.2,11.67-43.79c2.92-13.14,5.11-27.01,6.57-40.14.73-8.76.73-18.25.73-27.01-.73-8.03-4.38-14.6-12.4-18.25-11.67-5.11-30.64-2.92-37.2,8.03-.73.73-1.46,1.46-2.19,1.46v-.73c.79-4.53,1.58-9.55,2.27-14.06l-7.41.02c0,2.19.76,5.28-1.43,6.74-3.2-1.28-2.43-4.1-3.18-6.77l-1.11-.02c-1.29,2.96.22,6.86-3.73,7.52c2.19,8.03-.73,15.33-2.92,22.63-.73,2.92-3.65,2.19-5.11,0-.73-2.19-1.46-3.65-1.46-5.84.73-5.84-2.19-8.76-5.84-12.41-3.65,7.3-4.38,6.57-9.48,0-2.92-3.8-6.07-8.09-8.91-11.83h-16.23l-.01.01Zm10.77,205.12l-1.93-.48c.43-2.05.62-4.18.97-5.96c2.3-7.59,4.36-15.17,6.29-22.76-1.95,12.41-3.91,23.63-5.34,29.2h.01Zm17.29,34.43c0,.73-.73.73-.73,1.46-.39-1.16-.76-2.32-.82-3.91.79.87,1.41,1.54,1.81,1.95-.09.16-.16.33-.25.5h-.01Zm4.37-16.06c-.6,4.17-1.21,8.83-3,13.18l3.26-14.55c-.06.46-.13.92-.26,1.37Zm45.96-145.24c0,8.76-.73,17.52-1.46,26.28v0c0,3.65.73,8.03,0,11.68-2.92,13.14,2.19,27.74-5.84,40.14-2.92,5.11-4.38,10.95-6.57,16.06-.73,2.92-2.19,4.38-5.11,3.65-.73-2.19-.73-4.38,0-6.57c2.92-10.22,2.19-21.17,1.46-32.11-.73-10.95-.73-21.17-.73-32.11c0-2.92,0-5.84-2.19-7.3-2.19-2.19-2.19-4.38,0-5.84c5.11-5.11,8.75-10.95,13.86-16.06c1.46-1.46,2.92-2.92,5.11-2.19s1.46,2.92,1.46,4.38l.01-.01Zm24.8-45.99c-.73,3.65-3.65,3.65-6.57,3.65-10.21,0-19.7,0-27.72,6.57-2.92,2.92-6.57,5.84-8.75,10.22-.73,2.19-1.46,4.38-3.65,5.11-2.92-1.46-2.92-3.65-2.19-5.84s.73-4.38-2.92-3.65c6.57-12.41,13.86-22.63,25.53-29.2c8.02-4.38,16.78-5.84,25.53,0v0c3.65,2.19,4.38,7.3.73,13.14h.01Z" transform="matrix(1 0 0 0.998776 0 0.504496)" stroke-width="0"/></g></g><g id="eXMl6L1UJmu66_to" transform="translate(766.420044,342.733612)"><g id="eXMl6L1UJmu66_tk" transform="skewX(0) skewY(0)"><path style="mix-blend-mode:multiply" d="M674.28,360.45c0,0,2.04-39.81,20.23-39.34c36.7.96,45.37-34.57,45.37-34.57s7.47,25.03-10.91,47.4c-8.86,10.78,6.99,13.91,6.99,13.91s28.74,2.16,19-30.3c-9.73-32.46,39.71-25.96,39.71-25.96s8.29,3.24,5.48-15.66c0,0,11.91,17.19,3.06,35.5-8.84,18.31,27.42,27.59-3.61,57.18-15.56,14.84,1.6,21.75,7.19,2.31c5.59-19.45,11.06-4.96,24-23.36s13.28-8.3,27.77-17.17c-16.4,39.15-40.14,44.25-31.85,47.29c8.26,3.03,1.79,42.51-43.68,29.08-7.34-2.17-51.52-33.71-71.24-30.68s-37.5-15.63-37.5-15.63h-.01Z" transform="translate(-766.420044,-342.733612)" fill="#e02c24" stroke-width="0"/></g></g><g><g><path d="M67.22,364.95c24.58-13.61,53.82-34.87,83.7-61.17c34.83-30.67,72.85-71,79.27-91.96c1.68-5.5,1.22-9.79-1.39-12.75-5.49-6.22-14.06-9.37-25.47-9.37-20.23,0-42.92,9.87-43.88,10.29-.36.17-28.31,13.03-57.88,13.03-40.18,0-63.61-22.99-69.63-68.32-6.2-46.71,11.71-78.45,27.83-96.85C83.47,20.8,119.72,4,154.38,4c15.21,0,29.3,3.36,40.74,9.71c24.34,13.52,34.86,35.51,31.27,65.35-2.27,18.84-9.71,35.14-12.33,40.42l-51.71,6.03c18.27-27.02,3.88-43.4,1.27-46.01-1.04-1.28-4.63-4.99-11.53-4.99-11.65,0-26.03,10.71-42.74,31.83-12.99,16.42-17.63,30.82-13.77,42.77c4.92,15.26,21.73,20.22,22.45,20.42l1.88.54l1.58-1.16c.48-.35,48.91-35.49,92.65-35.49c24.62,0,43.13,11.25,55.01,33.43c10.49,19.58,12.26,39.43,5.28,59-9.84,27.58-36.72,55.07-79.9,81.72-35.1,21.66-71.92,36.96-87.65,43.49-3.51,1.46-6.04,2.51-7.58,3.22-9.59,4.41-21.19,7.95-32.08,10.65v.02Z" stroke-width="0"/><path d="M154.38,8c14.54,0,27.95,3.19,38.8,9.21c22.73,12.63,32.57,33.21,29.26,61.17-1.94,16.42-7.99,30.92-11.03,37.39l-41.5,4.84c5.98-11.61,6.26-21.01,5.02-27.54-1.7-8.94-6.49-14.43-8.37-16.29-2.54-3.05-7.58-6.26-14.47-6.26-13.12,0-28.12,10.91-45.87,33.34-13.87,17.54-18.73,33.18-14.44,46.48c5.57,17.27,24.36,22.82,25.16,23.04l3.77,1.07l3.16-2.31c.47-.35,47.89-34.72,90.29-34.71c23.36,0,40.2,10.25,51.48,31.31c10.07,18.81,11.72,37.05,5.04,55.77-9.53,26.7-35.85,53.5-78.23,79.66-34.83,21.49-71.45,36.71-87.09,43.21-3.2,1.33-5.6,2.33-7.22,3.05c23.13-15.97,43.88-33.49,55.44-43.66c32.67-28.77,73.35-70.6,80.45-93.79c2.64-8.62.25-13.77-2.22-16.56-6.28-7.12-15.86-10.73-28.47-10.73-21.06,0-44.5,10.2-45.49,10.63l-.08.04-.08.04c-.27.13-27.35,12.61-56.1,12.61-16.68,0-30.43-4.22-40.86-12.55-13.26-10.58-21.6-28.17-24.8-52.3-6-45.23,11.3-75.91,26.88-93.69C85.74,24.27,120.84,8,154.38,8m0-8C91.61,0,15.9,54.2,27.98,145.22c7.65,57.61,41.8,71.8,73.59,71.8s59.48-13.37,59.48-13.37s22.64-9.95,42.27-9.95c8.91,0,17.2,2.05,22.47,8.02c16.87,19.11-124.82,156.21-194.1,174.17c0,0,42.09-5.45,69.28-17.96c19.54-8.99,229.27-85.45,171.7-192.96-14.26-26.63-35.94-35.54-58.53-35.54-45.61,0-95.02,36.26-95.02,36.26s-42.12-12.02-6.63-56.87c19.59-24.76,32.22-30.31,39.6-30.31c5.99,0,8.53,3.65,8.53,3.65s19.6,16.93-7.16,48.41l63.19-7.37c0,0,43.03-78.21-19.58-113C184.64,3.32,169.9,0,154.38,0v0Z" fill="#fff" stroke-width="0"/></g><g><path d="M391.27,147.68L344.89,194.2l55.06,55.2h-37.7l-36.21-36.07-6.37,6.51v29.56h-26.72v-101.72h26.72v34.31l34.18-34.31h37.43-.01Z" stroke="#fff" stroke-width="8"/><path d="M415.17,147.68h26.72v101.72h-26.72v-101.72Z" stroke="#fff" stroke-width="8"/><path d="M456.36,147.68h26.72v74.86h36.62v26.85h-63.34v-101.72.01Z" stroke="#fff" stroke-width="8"/><path d="M533.81,147.68h26.72v74.86h36.62v26.85h-63.33v-101.72l-.01.01Z" stroke="#fff" stroke-width="8"/><path d="M649.69,176.87c0-4.2-3.53-7.73-7.73-7.73s-7.59,3.53-7.59,7.73s3.39,7.59,7.59,7.59c9.9,0,18.85,6.75,24.55,14.07c4.34,5.42,6.78,13.21,6.78,20.66c0,17.36-13.97,31.19-31.33,31.19s-31.33-10.7-31.33-28.6h23.73c0,4.34,3.39,7.73,7.59,7.73s7.73-3.39,7.73-7.59-3.53-7.73-7.73-7.73c-17.36,0-31.19-19.83-31.19-37.19s13.83-31.33,31.19-31.33s31.33,13.83,31.33,31.19h-23.6l.01.01Z" stroke="#fff" stroke-width="8"/></g><g id="eXMl6L1UJmu77_to" style="offset-path:path('M669.252289,127.137077L282.513092,127.137077L669.25,127.137077');offset-rotate:auto"><g id="eXMl6L1UJmu77_tr" transform="rotate(-180)"><polygon id="eXMl6L1UJmu77" points="50,22.57 59.89,42.6 82,45.82 66,61.41 69.78,83.43 50,73.04 30.22,83.43 34,61.41 18,45.82 40.11,42.6 50,22.57" transform="skewX(-16) skewY(0) translate(-50,-53)" fill="#fff"/></g></g></g></g></g></svg>
